<?xml version="1.0" encoding="UTF-8"?><svg id="_圖層_1" xmlns="http://www.w3.org/2000/svg" viewBox="0 0 960 200"><defs><style>.cls-1{fill:#fff;}.cls-2{fill:#418ece;}.cls-3{fill:#ffcfcf;}.cls-4{fill:none;stroke:#4e5572;stroke-miterlimit:10;stroke-width:.8px;}.cls-5{fill:#fff576;}.cls-6{fill:#b6e7ff;}.cls-7{fill:#4e5572;}</style></defs><path class="cls-1" d="m306.91,98.84h27.08v6.77c-3.54,17.56-12.2,31.1-25.98,40.78l-4.65-4.72c11.1-9.05,18.11-21.1,21.18-36.06h-17.64v-6.77Zm30.55-17.24h9.92v11.34c1.02,4.88,2.52,9.45,4.33,13.78,5.12-4.17,10.31-9.05,15.75-14.56l6.93,7.09c-6.14,5.12-12.75,9.76-19.84,13.94,5.67,11.1,13.86,20.63,24.64,28.58l-4.49,5.2c-11.89-7.95-21.02-17.79-27.32-29.52v28.34c0,2.91-.87,4.96-2.68,6.22-1.81,1.26-4.88,1.89-9.37,1.89-3.39,0-6.61-.16-9.53-.55l-1.65-8.03c3.23.39,5.98.63,8.42.63,1.89,0,3.15-.32,3.86-.87.63-.55.95-1.5,1.02-2.83v-60.62Z"/><path class="cls-1" d="m389.02,90.18c11.42-1.89,22.28-4.57,32.52-8.03l4.72,7.56c-3.86,1.02-7.95,2.05-12.28,2.99v13.31h12.99v6.61h-12.99v8.27l4.41-3.78c3.7,5.59,6.85,11.1,9.37,16.53l-4.96,4.02c-2.44-4.02-5.35-7.95-8.82-11.97v28.34h-9.61v-27.56c-4.8,7.56-9.76,13.46-14.88,17.71l-3.07-5.83c5.98-6.06,11.26-14.64,15.82-25.74h-13.38v-6.61h15.51v-11.65c-4.17.63-8.5,1.18-12.99,1.65l-2.36-5.83Zm41.81,46.29v-47.47h9.13v47.47h-9.13Zm16.22-55.03h9.45v64.79c0,2.83-.87,4.88-2.68,6.14s-4.96,1.89-9.29,1.89c-3.7,0-7.24-.31-10.47-.87l-1.5-7.79c3.31.47,6.14.71,8.58.71,2.28,0,3.86-.24,4.64-.79.79-.55,1.18-1.42,1.26-2.68v-61.41Z"/><path class="cls-1" d="m478.46,127.11h57v18.19h7.09v6.46h-71.33v-6.46h7.24v-18.19Zm-3.23-41.49h35.03v6.14h-9.84v5.12h8.03v15.75h-8.35v4.8h10.47v6.14h-35.35v-37.95Zm16.85,6.14h-7.72v5.12h7.72v-5.12Zm7.72,10.94h-15.43v4.09h15.43v-4.09Zm-8.03,9.92h-7.4v4.8h7.4v-4.8Zm-4.17,20.63v12.05h7.09v-12.05h-7.09Zm15.75,0v12.05h7.32v-12.05h-7.32Zm5.67-28.97c3.86-6.53,6.61-13.78,8.27-21.65l9.29,1.42c-.87,2.6-1.81,5.2-2.91,7.79h16.93v6.61h-20.08c-2.05,3.54-4.41,7.09-7.01,10.63l-4.49-4.8Zm4.49,7.87h24.56v6.61h-24.56v-6.61Zm5.83,21.1v12.05h7.01v-12.05h-7.01Z"/><path class="cls-1" d="m552.38,151.99c4.17-9.53,7.32-19.68,9.6-30.31l8.66,3.46c-3.86,12.36-7.95,22.2-12.2,29.6l-6.06-2.76Zm14.25-37.08c-4.33-3.31-8.98-6.22-14.01-8.66l5.51-7.24c5.59,3.94,9.84,7.56,12.83,10.94l-4.33,4.96Zm.32-17.95c-3.78-3.23-7.87-5.98-12.36-8.42l5.98-6.77c4.8,3.86,8.42,7.32,11.02,10.55l-4.64,4.64Zm.63,54.32c3.31-4.25,6.14-8.82,8.58-13.7l7.4,4.57c-3.31,4.57-7.01,8.74-11.1,12.44l-4.88-3.31Zm29.76-64.87v50.39h-25.11v-50.39h25.11Zm-8.82,14.88v-8.42h-7.48v8.42h7.48Zm-7.48,14.17h7.48v-8.03h-7.48v8.03Zm7.48,6.14h-7.48v8.74h7.48v-8.74Zm4.57,15.67c2.91,4.57,5.2,8.9,7.01,13.07l-4.8,3.54c-1.97-3.23-5.04-7.09-9.13-11.57l6.93-5.04Zm8.11,1.26v-50.47h8.03v50.47h-8.03Zm12.2-56.61h9.13v64.8c0,2.68-.79,4.64-2.36,5.83-1.65,1.18-4.33,1.81-8.11,1.81-2.99,0-5.75-.24-8.27-.71l-1.5-7.64c2.76.39,5.12.63,7.09.63,1.57,0,2.6-.24,3.15-.71.55-.47.79-1.34.87-2.52v-61.49Z"/><path class="cls-1" d="m654.97,100.34h9.29v12.75c8.58-4.64,16.3-10.79,22.99-18.42l6.14,6.46c-7.64,7.95-16.45,14.33-26.45,19.05,1.73.24,4.02.32,6.93.39,2.99,0,5.43-.16,7.32-.39,1.5-.24,2.52-.94,3.07-2.2.55-1.34.79-3.7.79-7.24l9.37,4.49c-.16,4.17-.87,7.16-2.2,9.05-1.34,1.97-3.78,3.07-7.24,3.31-2.13.16-5.67.24-10.63.24s-8.58-.08-10.79-.24c-3.54-.32-5.98-1.42-7.32-3.39-5.83,1.81-11.97,3.15-18.42,4.02l-1.73-6.06c6.69-1.02,12.99-2.68,18.9-4.88v-16.93Zm-17.08-12.83h29.76c-.87-1.97-1.81-3.86-2.83-5.83l9.76-1.42c.39,2.44.79,4.88,1.02,7.24h30.31v13.38h-9.6v-6.77h-25.67c2.68,2.44,5.12,4.88,7.32,7.4l-4.09,3.78c-2.91-2.36-6.3-4.57-10.31-6.69l4.49-4.49h-20.55v6.3l6.38,2.91c-3.15,5.98-6.46,11.26-9.92,15.75l-5.43-3.07c2.44-4.49,4.64-9.53,6.54-15.12h-7.16v-13.38Zm13.86,44.48v12.44h15.12v-14.64h9.76v14.64h15.75v-12.44h9.45v22.52h-9.45v-3.46h-50.07v-19.05h9.45Zm47.32-30.39c3.39,6.06,6.14,11.81,8.11,17.16l-5.51,3.39c-2.12-4.41-5.43-9.68-10.08-15.82l7.48-4.72Z"/><path class="cls-1" d="m753.38,91.68v62.83h-8.66v-7.16l-4.96.94c-1.1-5.43-2.6-10.63-4.41-15.51l6.54-1.58c1.18,3.78,2.12,7.64,2.83,11.65v-47.16c-3.23,5.43-6.54,10.63-10,15.75l5.35-1.65c1.81,6.69,3.07,12.91,3.7,18.66l-5.12,1.5c-.24-1.26-.55-2.6-.94-3.94l-18.97,4.8-2.05-7.48c2.52-1.65,4.8-4.02,6.77-7.09,1.5-2.44,3.07-4.88,4.64-7.48-3.23.94-6.22,1.89-9.05,2.83l-2.76-7.79c1.34-.94,2.6-2.2,3.62-3.7,1.02-1.57,2.28-3.7,3.62-6.3,1.34-2.68,2.99-7.09,5.12-13.31l9.13,1.65c-3.39,7.64-6.93,14.25-10.79,19.92l5.28-.87c1.73-3.31,3.46-6.77,5.2-10.31l7.24,1.65v-7.48h45.27v60.7c0,3.07-.71,5.27-2.2,6.61-1.5,1.26-4.09,1.89-7.79,1.89-2.52,0-5.28-.31-8.19-.87l-1.1-7.24c2.44.47,4.57.71,6.53.71,1.5,0,2.52-.24,3.15-.71.63-.47.94-1.18.94-2.05v-52.43h-27.95Zm-37.08,60.54c1.26-5.27,1.89-11.65,1.89-19.13l7.95.79c-.87,7.64-2.36,14.25-4.49,19.84l-5.35-1.5Zm13.54-1.18c-.55-6.06-1.5-11.89-2.91-17.4l7.32-.87c1.02,5.9,1.58,11.89,1.65,17.87l-6.06.39Zm-2.52-29.84l8.35-1.73c-.71-1.97-1.42-4.02-2.28-6.14-1.97,2.68-4.02,5.27-6.06,7.87Zm51.1,20.63h-14.64c-3.54,0-5.35-1.81-5.35-5.35v-10.63h-3.86v-6.14h10.55c-.94-2.13-2.05-4.25-3.31-6.38l8.5-1.42c.63,2.68,1.1,5.27,1.42,7.79h8.5v6.14h-13.78v8.42c0,.87.39,1.26,1.26,1.26h10.71v6.3Zm-8.9-37.16c.71-2.99,1.34-6.14,1.89-9.53l7.87,1.89c-1.02,2.6-2.12,5.12-3.46,7.64h4.25v6.14h-25.35v-6.14h5.12c-1.18-2.6-2.52-5.2-4.17-7.87l7.87-1.73c1.02,3.31,1.89,6.53,2.52,9.61h3.46Z"/><path class="cls-1" d="m800.61,121.12h31.65v-28.03h-26.85v-6.93h63.3v6.93h-26.53v28.03h31.65v6.93h-31.65v26.45h-9.92v-26.45h-31.65v-6.93Zm16.69-24.33c3.46,6.3,6.3,12.44,8.5,18.42l-5.98,2.2c-2.83-5.51-6.53-11.26-11.18-17.16l8.66-3.46Zm48.73,4.49c-3.54,5.9-7.72,11.42-12.52,16.69l-5.67-2.68c3.39-5.2,6.61-11.26,9.68-18.27l8.5,4.25Z"/><path class="cls-1" d="m922.17,85.38c-7.01,7.48-14.41,14.25-22.04,20.31,11.65-.31,24.17-.71,37.47-1.18-3.23-3.31-6.61-6.61-10.23-9.84l7.72-5.2c7.72,8.35,14.33,16.69,19.92,25.11l-5.67,3.62c-1.89-2.52-3.86-4.96-5.98-7.4-19.6,1.57-37.79,2.91-54.4,3.94l-1.1-8.82c3.15-1.57,6.3-3.94,9.37-7.01,5.12-5.12,10.31-11.02,15.51-17.71l9.45,4.17Zm-30,35.04h55.11v33.77h-9.92v-6.22h-35.27v6.22h-9.92v-33.77Zm45.19,6.61h-35.27v14.17h35.27v-14.17Z"/><path class="cls-7" d="m335.33,155.38c-3.74,0-6.92-.18-9.73-.57l-1.05-.14-2.29-11.12,2.07.25c3.51.43,6.05.62,8.24.62,2.01,0,2.72-.38,2.94-.55.1-.09.38-.51.45-1.74v-62.03s12.92,0,12.92,0v12.68c.82,3.85,1.95,7.62,3.45,11.47,4.28-3.6,8.9-7.92,14.06-13.16l1.07-1.09,9.13,9.34-1.25,1.04c-5.82,4.85-12.14,9.33-18.81,13.35,5.53,10.35,13.44,19.36,23.55,26.81l1.3.96-6.41,7.43-1.1-.74c-10.41-6.96-18.79-15.43-24.98-25.23v22.8c0,3.41-1.12,5.92-3.32,7.45-2.09,1.45-5.43,2.16-10.23,2.16Zm-34.19-13.83l1.28-1.04c10.26-8.37,17.07-19.6,20.26-33.4h-17.27v-9.77h30.08v8.42l-.03.15c-3.59,17.8-12.54,31.84-26.59,41.71l-1.04.73-6.69-6.8Z"/><path class="cls-7" d="m444.53,155.77c-3.67,0-7.28-.3-10.72-.89l-1.02-.17-2.09-10.88,2.08.3c3.27.47,6.01.69,8.37.69,2.83,0,3.61-.4,3.78-.52.16-.12.55-.39.62-1.54v-62.82s12.45,0,12.45,0v66.29c0,3.36-1.12,5.84-3.32,7.37-2.09,1.45-5.41,2.16-10.15,2.16Zm-41.65-.24v-24.11c-4.02,5.73-8.19,10.4-12.42,13.92l-1.42,1.18-4.44-8.43.77-.78c5.44-5.52,10.36-13.31,14.63-23.19h-12.62v-9.61h15.51v-8.41c-3.66.53-7.46,1-11.33,1.41l-1.12.12-3.49-8.61,1.85-.31c11.34-1.88,22.2-4.56,32.28-7.97l1.12-.38,6.43,10.29-1.96.52c-4.03,1.07-7.7,1.97-11.17,2.75v10.6h12.99v9.61h-12.99v3.5l3.22-2.76.94,1.42c3.81,5.76,7,11.39,9.48,16.73l.21.45v-45.96h12.13v50.47h-12.13v-3.68l-6.92,5.6-.89-1.47c-1.74-2.87-3.73-5.7-6.04-8.59v25.69h-12.6Z"/><path class="cls-7" d="m469.71,153.25v-9.46h7.24v-18.19h60v18.19h7.09v9.46h-74.33Zm55.11-9.46v-9.05h-4.01v9.05h4.01Zm-15.67,0v-9.05h-4.32v9.05h4.32Zm-15.98,0v-9.05h-4.09v9.05h4.09Zm-19.45-18.73v-40.95h38.03v9.14h-9.84v2.12h8.03v4.01c2.61-5.26,4.57-10.98,5.85-17.06l.29-1.39,12.45,1.9-.56,1.69c-.7,2.11-1.4,4.03-2.1,5.82h16.19v9.61h-20.71c-1.89,3.21-4.08,6.5-6.66,10.02l-.5.68h25.35v9.61h-27.48v4.8h-38.35Zm38.26-9.14v-5.28h.91l-2.95-3.16v6.63h-8.35v1.8h10.38Zm-21.73,0v-1.8h-4.4v1.8h4.4Zm8.03-10.63v-1.09h-12.43v1.09h12.43Zm-7.72-9.92v-2.12h-4.71v2.12h4.71Z"/><path class="cls-7" d="m550.42,152.74l.59-1.35c3.99-9.11,7.19-19.21,9.51-30.02l.37-1.74,9.83,3.93v-11.05l-3.88,4.45-1.12-.85c-4.37-3.34-9-6.2-13.76-8.5l-1.65-.8,7.5-9.85,1.18.83c4.93,3.47,8.79,6.66,11.73,9.7v-12.18l-3.69,3.69-1.05-.9c-3.61-3.08-7.57-5.78-12.1-8.25l-1.65-.9,8.18-9.25,1.12.9c3.76,3.02,6.8,5.79,9.21,8.42v-4.1h28.12v53.39h-3.34c2.34,3.83,4.3,7.59,5.97,11.44l.06.13-1.11-5.65,2.09.3c2.93.42,5.12.62,6.87.62s2.13-.31,2.17-.35c0,0,.25-.23.34-1.43v-62.94h12.13v66.3c0,3.19-1,5.55-2.96,7.03-2,1.43-4.93,2.11-9.01,2.11-3.07,0-5.94-.25-8.54-.73l-1-.19-.77-3.95-6.88,5.08-.85-1.4c-1.88-3.09-4.82-6.8-8.96-11.34l-.27-.3h0c-3.41,4.72-7.22,8.98-11.31,12.68l-.87.79-7.18-4.86.98-1.26c2.86-3.67,5.45-7.73,7.72-12.06h-3.39v-8.49c-3.44,10.36-7.13,18.99-10.98,25.69l-.68,1.18-8.65-3.93Zm34.6-11.46l4.11-2.99h-8.95l4.84,2.99Zm2.01-12.44v-5.74h-4.48v5.74h4.48Zm0-14.88v-5.03h-4.48v5.03h4.48Zm0-14.17v-5.42h-4.48v5.42h4.48Zm12.67,40.24v-53.47h11.03v53.47h-11.03Z"/><path class="cls-7" d="m690.86,156v-3.46h-50.07v-22.05h12.45v12.44h12.12v-13.75c-.73-.03-1.37-.06-1.92-.1-3.55-.32-6.09-1.35-7.75-3.15-5.59,1.68-11.54,2.94-17.69,3.77l-1.29.17-2.56-8.95,1.68-.26c1.99-.31,3.97-.67,5.92-1.1l-5.28-2.98.71-1.3c2.15-3.96,4.08-8.29,5.74-12.9h-6.55v-16.38h28.92c-.51-1.07-1.1-2.24-1.83-3.63l-.97-1.87,13.31-1.93.24,1.46c.32,1.97.65,3.99.89,5.98h30.47v16.38h-6.2c3.13,5.74,5.61,11.07,7.37,15.85l.42,1.15-7.97,4.9-.72-1.5c-1.14-2.37-2.61-4.94-4.38-7.7v.18c-.18,4.52-.99,7.75-2.49,9.86-1.59,2.33-4.41,3.67-8.37,3.94-1.58.12-3.87.19-6.95.22v13.63h12.75v-12.44h12.45v25.52h-12.45Zm-16.96-36.93c2.67,0,5.08-.13,7.1-.38,1.23-.19,1.65-.78,1.88-1.32.39-.94.61-2.75.65-5.49-3.5,2.65-7.19,5.03-11.05,7.15.46.01.93.03,1.42.04Zm-20.44-11.86c-2.33,4.16-4.74,7.93-7.19,11.26,2.44-.66,4.84-1.41,7.19-2.25v-9.01Zm41.67,6.69c-1.41-2.12-3-4.35-4.75-6.67l-.47-.63c-1.17,1.06-2.36,2.09-3.58,3.08l8.8,4.22Zm-29.38-3.37c2.32-1.35,4.57-2.82,6.74-4.4-2.02-1.6-4.24-3.11-6.74-4.58v8.98Zm28.71-8.36c-.47.49-.95.98-1.44,1.46l1.96-1.24h-.19v-.57l-.33.34Zm-41-.67v-2.66h7.73l3.22-3.22h-15.43v3.83l4.48,2.05Zm20.95-5.88c1.71,1.67,3.25,3.29,4.67,4.91l.13.15c1.78-1.61,3.5-3.29,5.15-5.07h-9.95Zm20.39,4.82v-4.82h-4.58l4.58,4.82Z"/><path class="cls-7" d="m743.22,156v-6.85l-4.63.88-.29-1.45c-.36-1.78-.77-3.55-1.22-5.3.19,2.45.3,4.9.33,7.34l.02,1.42-8.94.58-.13-1.46c-.35-3.9-.87-7.65-1.55-11.21-.9,5.31-2.15,10.1-3.74,14.28l-.49,1.28-8.06-2.25.33-1.4c1.23-5.14,1.85-11.46,1.85-18.78v-1.66l.69.07-2.42-8.83.91-.6c2.38-1.56,4.51-3.79,6.33-6.64.65-1.06,1.32-2.14,2.01-3.23.18-.29.36-.57.54-.86-1.73.54-3.46,1.09-5.22,1.68l-1.4.47-3.62-10.25.93-.65c1.23-.87,2.36-2.02,3.25-3.32.79-1.22,2.06-3.3,3.53-6.14,1.21-2.42,2.76-6.47,5.03-13.1l.42-1.22,12.28,2.22-.77,1.74c-2.94,6.62-5.91,12.31-9.04,17.28l1.17-.19c1.46-2.8,3.04-5.96,4.83-9.61l.52-1.07,6.57,1.5v-7.1h48.27v62.2c0,3.57-.88,6.1-2.71,7.73-1.83,1.54-4.69,2.27-8.79,2.27-2.49,0-5.34-.3-8.47-.89l-1.04-.2-1.58-10.4,2.09.4c2.37.46,4.41.68,6.25.68,1.54,0,2.08-.29,2.25-.41.1-.07.34-.26.34-.85v-.78h-16.06c-4.36,0-6.85-2.5-6.85-6.85v-9.13h-2.04v28.66h-11.66Zm24.74-21.62h0Zm11.87-.36v-6.68h-11.88v6.68h11.88Zm-54.36-1.73l10.02-1.18v.08s1.8-.43,1.8-.43l-.1-.55c-.15-.8-.33-1.6-.53-2.4l-15.88,4.02,4.69.46Zm17.75-1.86v-.27l-.08.02.08.25Zm-10.26-14.04c-.64.84-1.28,1.67-1.93,2.5l2.64-.55c-.23-.64-.47-1.3-.71-1.96Zm46.87,1.81v-5.9h-7.89c.45,2,.82,3.97,1.1,5.9h6.79Zm-17.08,0c-.68-1.37-1.43-2.75-2.24-4.11l-1.06-1.78h-4.58v5.9h7.87Zm-21.23-8.81c.64,2.37,1.21,4.65,1.7,6.85v-15.17c-1.6,2.59-3.22,5.14-4.91,7.69l2.8-.87.41,1.5Zm38.31-6.23v-3.5c-.52,1.24-1.04,2.4-1.57,3.5h1.57Zm-11.5,0c.61-2.67,1.13-5.39,1.6-8.27l.26-1.59,9.64,2.31v-2.44h-24.95v2.25l9.68-2.13.41,1.32c.95,3.05,1.72,5.92,2.3,8.55h1.06Zm-10.86,0c-.82-1.67-1.68-3.25-2.59-4.77v4.77h2.59Z"/><path class="cls-7" d="m830.76,156v-26.45h-31.65v-9.93h31.65v-25.03h-26.85v-9.93h66.3v9.93h-26.53v25.03h9.82l-7.84-3.7.94-1.44c3.36-5.16,6.58-11.23,9.57-18.05l.63-1.45,11.36,5.68-.83,1.39c-3.53,5.89-7.68,11.43-12.69,16.93l-.58.64h21.28v9.93h-31.65v26.45h-12.92Zm-12.27-37.9c-2.87-5.57-6.58-11.27-11.02-16.92l-1.24-1.58,11.75-4.7.64,1.16c3.48,6.33,6.38,12.6,8.59,18.63l.52,1.41-8.64,3.18-.61-1.18Z"/><path class="cls-7" d="m935.87,155.69v-6.22h-32.27v6.22h-12.92v-36.77h57.31c-1.71-2.27-3.44-4.42-5.27-6.55-20.68,1.66-38.24,2.93-53.67,3.88l-1.41.09-1.41-11.27.95-.47c2.99-1.49,6.01-3.76,8.98-6.73,5.16-5.16,10.34-11.08,15.39-17.57l.72-.93,12.46,5.5-1.45,1.54c-5.86,6.25-12.16,12.18-18.76,17.67,9.42-.27,19.36-.58,29.62-.94-2.71-2.7-5.26-5.12-7.76-7.34l-1.44-1.29,10.38-6.99.87.94c7.7,8.33,14.46,16.85,20.07,25.3l.84,1.27-8.13,5.19-.18-.24v35.71h-12.92Zm0-15.99v-11.17h-32.27v11.17h32.27Z"/><path class="cls-2" d="m306.91,98.84h27.08v6.77c-3.54,17.56-12.2,31.1-25.98,40.78l-4.65-4.72c11.1-9.05,18.11-21.1,21.18-36.06h-17.64v-6.77Zm30.55-17.24h9.92v11.34c1.02,4.88,2.52,9.45,4.33,13.78,5.12-4.17,10.31-9.05,15.75-14.56l6.93,7.09c-6.14,5.12-12.75,9.76-19.84,13.94,5.67,11.1,13.86,20.63,24.64,28.58l-4.49,5.2c-11.89-7.95-21.02-17.79-27.32-29.52v28.34c0,2.91-.87,4.96-2.68,6.22-1.81,1.26-4.88,1.89-9.37,1.89-3.39,0-6.61-.16-9.53-.55l-1.65-8.03c3.23.39,5.98.63,8.42.63,1.89,0,3.15-.32,3.86-.87.63-.55.95-1.5,1.02-2.83v-60.62Z"/><path class="cls-2" d="m389.02,90.18c11.42-1.89,22.28-4.57,32.52-8.03l4.72,7.56c-3.86,1.02-7.95,2.05-12.28,2.99v13.31h12.99v6.61h-12.99v8.27l4.41-3.78c3.7,5.59,6.85,11.1,9.37,16.53l-4.96,4.02c-2.44-4.02-5.35-7.95-8.82-11.97v28.34h-9.61v-27.56c-4.8,7.56-9.76,13.46-14.88,17.71l-3.07-5.83c5.98-6.06,11.26-14.64,15.82-25.74h-13.38v-6.61h15.51v-11.65c-4.17.63-8.5,1.18-12.99,1.65l-2.36-5.83Zm41.81,46.29v-47.47h9.13v47.47h-9.13Zm16.22-55.03h9.45v64.79c0,2.83-.87,4.88-2.68,6.14s-4.96,1.89-9.29,1.89c-3.7,0-7.24-.31-10.47-.87l-1.5-7.79c3.31.47,6.14.71,8.58.71,2.28,0,3.86-.24,4.64-.79.79-.55,1.18-1.42,1.26-2.68v-61.41Z"/><path class="cls-2" d="m478.46,127.11h57v18.19h7.09v6.46h-71.33v-6.46h7.24v-18.19Zm-3.23-41.49h35.03v6.14h-9.84v5.12h8.03v15.75h-8.35v4.8h10.47v6.14h-35.35v-37.95Zm16.85,6.14h-7.72v5.12h7.72v-5.12Zm7.72,10.94h-15.43v4.09h15.43v-4.09Zm-8.03,9.92h-7.4v4.8h7.4v-4.8Zm-4.17,20.63v12.05h7.09v-12.05h-7.09Zm15.75,0v12.05h7.32v-12.05h-7.32Zm5.67-28.97c3.86-6.53,6.61-13.78,8.27-21.65l9.29,1.42c-.87,2.6-1.81,5.2-2.91,7.79h16.93v6.61h-20.08c-2.05,3.54-4.41,7.09-7.01,10.63l-4.49-4.8Zm4.49,7.87h24.56v6.61h-24.56v-6.61Zm5.83,21.1v12.05h7.01v-12.05h-7.01Z"/><path class="cls-2" d="m552.38,151.99c4.17-9.53,7.32-19.68,9.6-30.31l8.66,3.46c-3.86,12.36-7.95,22.2-12.2,29.6l-6.06-2.76Zm14.25-37.08c-4.33-3.31-8.98-6.22-14.01-8.66l5.51-7.24c5.59,3.94,9.84,7.56,12.83,10.94l-4.33,4.96Zm.32-17.95c-3.78-3.23-7.87-5.98-12.36-8.42l5.98-6.77c4.8,3.86,8.42,7.32,11.02,10.55l-4.64,4.64Zm.63,54.32c3.31-4.25,6.14-8.82,8.58-13.7l7.4,4.57c-3.31,4.57-7.01,8.74-11.1,12.44l-4.88-3.31Zm29.76-64.87v50.39h-25.11v-50.39h25.11Zm-8.82,14.88v-8.42h-7.48v8.42h7.48Zm-7.48,14.17h7.48v-8.03h-7.48v8.03Zm7.48,6.14h-7.48v8.74h7.48v-8.74Zm4.57,15.67c2.91,4.57,5.2,8.9,7.01,13.07l-4.8,3.54c-1.97-3.23-5.04-7.09-9.13-11.57l6.93-5.04Zm8.11,1.26v-50.47h8.03v50.47h-8.03Zm12.2-56.61h9.13v64.8c0,2.68-.79,4.64-2.36,5.83-1.65,1.18-4.33,1.81-8.11,1.81-2.99,0-5.75-.24-8.27-.71l-1.5-7.64c2.76.39,5.12.63,7.09.63,1.57,0,2.6-.24,3.15-.71.55-.47.79-1.34.87-2.52v-61.49Z"/><path class="cls-2" d="m654.97,100.34h9.29v12.75c8.58-4.64,16.3-10.79,22.99-18.42l6.14,6.46c-7.64,7.95-16.45,14.33-26.45,19.05,1.73.24,4.02.32,6.93.39,2.99,0,5.43-.16,7.32-.39,1.5-.24,2.52-.94,3.07-2.2.55-1.34.79-3.7.79-7.24l9.37,4.49c-.16,4.17-.87,7.16-2.2,9.05-1.34,1.97-3.78,3.07-7.24,3.31-2.13.16-5.67.24-10.63.24s-8.58-.08-10.79-.24c-3.54-.32-5.98-1.42-7.32-3.39-5.83,1.81-11.97,3.15-18.42,4.02l-1.73-6.06c6.69-1.02,12.99-2.68,18.9-4.88v-16.93Zm-17.08-12.83h29.76c-.87-1.97-1.81-3.86-2.83-5.83l9.76-1.42c.39,2.44.79,4.88,1.02,7.24h30.31v13.38h-9.6v-6.77h-25.67c2.68,2.44,5.12,4.88,7.32,7.4l-4.09,3.78c-2.91-2.36-6.3-4.57-10.31-6.69l4.49-4.49h-20.55v6.3l6.38,2.91c-3.15,5.98-6.46,11.26-9.92,15.75l-5.43-3.07c2.44-4.49,4.64-9.53,6.54-15.12h-7.16v-13.38Zm13.86,44.48v12.44h15.12v-14.64h9.76v14.64h15.75v-12.44h9.45v22.52h-9.45v-3.46h-50.07v-19.05h9.45Zm47.32-30.39c3.39,6.06,6.14,11.81,8.11,17.16l-5.51,3.39c-2.12-4.41-5.43-9.68-10.08-15.82l7.48-4.72Z"/><path class="cls-2" d="m753.38,91.68v62.83h-8.66v-7.16l-4.96.94c-1.1-5.43-2.6-10.63-4.41-15.51l6.54-1.58c1.18,3.78,2.12,7.64,2.83,11.65v-47.16c-3.23,5.43-6.54,10.63-10,15.75l5.35-1.65c1.81,6.69,3.07,12.91,3.7,18.66l-5.12,1.5c-.24-1.26-.55-2.6-.94-3.94l-18.97,4.8-2.05-7.48c2.52-1.65,4.8-4.02,6.77-7.09,1.5-2.44,3.07-4.88,4.64-7.48-3.23.94-6.22,1.89-9.05,2.83l-2.76-7.79c1.34-.94,2.6-2.2,3.62-3.7,1.02-1.57,2.28-3.7,3.62-6.3,1.34-2.68,2.99-7.09,5.12-13.31l9.13,1.65c-3.39,7.64-6.93,14.25-10.79,19.92l5.28-.87c1.73-3.31,3.46-6.77,5.2-10.31l7.24,1.65v-7.48h45.27v60.7c0,3.07-.71,5.27-2.2,6.61-1.5,1.26-4.09,1.89-7.79,1.89-2.52,0-5.28-.31-8.19-.87l-1.1-7.24c2.44.47,4.57.71,6.53.71,1.5,0,2.52-.24,3.15-.71.63-.47.94-1.18.94-2.05v-52.43h-27.95Zm-37.08,60.54c1.26-5.27,1.89-11.65,1.89-19.13l7.95.79c-.87,7.64-2.36,14.25-4.49,19.84l-5.35-1.5Zm13.54-1.18c-.55-6.06-1.5-11.89-2.91-17.4l7.32-.87c1.02,5.9,1.58,11.89,1.65,17.87l-6.06.39Zm-2.52-29.84l8.35-1.73c-.71-1.97-1.42-4.02-2.28-6.14-1.97,2.68-4.02,5.27-6.06,7.87Zm51.1,20.63h-14.64c-3.54,0-5.35-1.81-5.35-5.35v-10.63h-3.86v-6.14h10.55c-.94-2.13-2.05-4.25-3.31-6.38l8.5-1.42c.63,2.68,1.1,5.27,1.42,7.79h8.5v6.14h-13.78v8.42c0,.87.39,1.26,1.26,1.26h10.71v6.3Zm-8.9-37.16c.71-2.99,1.34-6.14,1.89-9.53l7.87,1.89c-1.02,2.6-2.12,5.12-3.46,7.64h4.25v6.14h-25.35v-6.14h5.12c-1.18-2.6-2.52-5.2-4.17-7.87l7.87-1.73c1.02,3.31,1.89,6.53,2.52,9.61h3.46Z"/><path class="cls-2" d="m800.61,121.12h31.65v-28.03h-26.85v-6.93h63.3v6.93h-26.53v28.03h31.65v6.93h-31.65v26.45h-9.92v-26.45h-31.65v-6.93Zm16.69-24.33c3.46,6.3,6.3,12.44,8.5,18.42l-5.98,2.2c-2.83-5.51-6.53-11.26-11.18-17.16l8.66-3.46Zm48.73,4.49c-3.54,5.9-7.72,11.42-12.52,16.69l-5.67-2.68c3.39-5.2,6.61-11.26,9.68-18.27l8.5,4.25Z"/><path class="cls-2" d="m922.17,85.38c-7.01,7.48-14.41,14.25-22.04,20.31,11.65-.31,24.17-.71,37.47-1.18-3.23-3.31-6.61-6.61-10.23-9.84l7.72-5.2c7.72,8.35,14.33,16.69,19.92,25.11l-5.67,3.62c-1.89-2.52-3.86-4.96-5.98-7.4-19.6,1.57-37.79,2.91-54.4,3.94l-1.1-8.82c3.15-1.57,6.3-3.94,9.37-7.01,5.12-5.12,10.31-11.02,15.51-17.71l9.45,4.17Zm-30,35.04h55.11v33.77h-9.92v-6.22h-35.27v6.22h-9.92v-33.77Zm45.19,6.61h-35.27v14.17h35.27v-14.17Z"/><path class="cls-6" d="m293.69,119.43c-.85-4.39-3.19-7.8-6.92-10.25-1.18-.78-2.48-1.3-3.81-1.75-.81-.28-1.27-.86-1.42-1.69-.1-.55,0-1.08.26-1.58.66-1.31,1.14-3.22.92-4.68-.39-2.58-2.37-5.47-4.81-6.42-2.16-.84-5.93-2.58-6.41-3.57-1.65-3.38-4.44-6.19-8.05-5.34-3.25.76-5.42,3.48-5.42,6.82,0,3.86,0,7.71,0,11.57,0,.14,0,.27,0,.41v1.41c.11.04.23.04.35.04,3.06,0,3.21,0,6.27,0,.31,0,.46-.09.58-.39.93-2.46,3.11-3.84,5.72-3.67,2.4.16,4.62,2.26,4.98,4.7.4,2.79-1.31,5.44-4,6.17-2.74.75-5.56-.61-6.61-3.26-.21-.53-.46-.63-.96-.63-2.96.02-3.02,0-5.98,0-.12,0-.24,0-.35,0v4.75c0,.11,0,.23,0,.34,0,1.76,0,3.52,0,5.28.17,0,.33-.02.5-.02,6.95,0,11,0,17.95,0,.38,0,.56-.1.7-.48.88-2.41,3.32-3.9,5.8-3.57,2.58.34,4.57,2.35,4.85,4.9.31,2.8-1.5,5.37-4.23,6.01-2.75.65-5.48-.82-6.45-3.5-.12-.34-.29-.43-.63-.43-6.96,0-11.03,0-17.99,0-.17,0-.33-.01-.5-.02,0,2.22,0,4.43,0,6.65.59,0,1.19,0,2.49,0,.83,0,1.36.36,1.7,1.1.72,1.58,1.37,3.2,2.04,4.8.11.27.25.36.54.36,1.61-.01,3.22-.02,4.82,0,.29,0,.43-.09.52-.37.83-2.37,3.23-3.93,5.68-3.69,2.5.24,4.63,2.22,5.02,4.66.49,3.04-1.61,5.91-4.65,6.37-2.5.38-4.99-1.05-5.95-3.47-.17-.42-.35-.54-.8-.54-1.84.04-3.67,0-5.51.02-.96,0-1.59-.4-1.96-1.3-.65-1.57-1.36-3.12-2.04-4.69-.11-.27-.28-.32-.53-.32-.66,0-1.06,0-1.37,0,0,.55,0,1.1,0,1.65,0,6.48,0,12.96,0,19.44,0,.87.13,1.71.45,2.52,1.3,3.3,4.53,5.15,7.82,4.36,2.61-.62,4.43-2.19,5.17-4.85.22-.79.2-1.6.24-2.41.06-1.46.74-2.14,2.2-2.15.19,0,.39,0,.58,0,2.22.07,4.14-.68,5.8-2.13,2.37-2.07,3.33-5.33,2.54-8.26,2.4-.75,3.65-2.32,4-2.82,1.65-1.08,3.07-2.41,4.2-4.01,2.58-3.65,3.5-7.7,2.65-12.11Z"/><path class="cls-6" d="m277.92,134.98c0-1.42-1.13-2.55-2.56-2.55-1.44,0-2.55,1.1-2.56,2.54,0,1.45,1.11,2.57,2.56,2.58,1.4,0,2.55-1.16,2.55-2.57Z"/><path class="cls-6" d="m284.89,119.12c-.01-1.38-1.2-2.56-2.58-2.56-1.44,0-2.55,1.15-2.55,2.6,0,1.44,1.15,2.58,2.58,2.57,1.41,0,2.55-1.18,2.54-2.62Z"/><path class="cls-6" d="m273,105.93c0-1.46-1.15-2.64-2.57-2.64-1.39,0-2.55,1.18-2.55,2.59,0,1.43,1.17,2.59,2.62,2.58,1.38,0,2.51-1.15,2.5-2.53Z"/><path class="cls-6" d="m293.69,119.43c-.85-4.39-3.19-7.8-6.92-10.25-1.18-.78-2.48-1.3-3.81-1.75-.81-.28-1.27-.86-1.42-1.69-.1-.55,0-1.08.26-1.58.66-1.31,1.14-3.22.92-4.68-.39-2.58-2.37-5.47-4.81-6.42-2.16-.84-5.93-2.58-6.41-3.57-1.65-3.38-4.44-6.19-8.05-5.34-3.25.76-5.42,3.48-5.42,6.82,0,3.86,0,7.71,0,11.57,0,.14,0,.27,0,.41v1.41c.11.04.23.04.35.04,3.06,0,3.21,0,6.27,0,.31,0,.46-.09.58-.39.93-2.46,3.11-3.84,5.72-3.67,2.4.16,4.62,2.26,4.98,4.7.4,2.79-1.31,5.44-4,6.17-2.74.75-5.56-.61-6.61-3.26-.21-.53-.46-.63-.96-.63-2.96.02-3.02,0-5.98,0-.12,0-.24,0-.35,0v4.75c0,.11,0,.23,0,.34,0,1.76,0,3.52,0,5.28.17,0,.33-.02.5-.02,6.95,0,11,0,17.95,0,.38,0,.56-.1.7-.48.88-2.41,3.32-3.9,5.8-3.57,2.58.34,4.57,2.35,4.85,4.9.31,2.8-1.5,5.37-4.23,6.01-2.75.65-5.48-.82-6.45-3.5-.12-.34-.29-.43-.63-.43-6.96,0-11.03,0-17.99,0-.17,0-.33-.01-.5-.02,0,2.22,0,4.43,0,6.65.59,0,1.19,0,2.49,0,.83,0,1.36.36,1.7,1.1.72,1.58,1.37,3.2,2.04,4.8.11.27.25.36.54.36,1.61-.01,3.22-.02,4.82,0,.29,0,.43-.09.52-.37.83-2.37,3.23-3.93,5.68-3.69,2.5.24,4.63,2.22,5.02,4.66.49,3.04-1.61,5.91-4.65,6.37-2.5.38-4.99-1.05-5.95-3.47-.17-.42-.35-.54-.8-.54-1.84.04-3.67,0-5.51.02-.96,0-1.59-.4-1.96-1.3-.65-1.57-1.36-3.12-2.04-4.69-.11-.27-.28-.32-.53-.32-.66,0-1.06,0-1.37,0,0,.55,0,1.1,0,1.65,0,6.48,0,12.96,0,19.44,0,.87.13,1.71.45,2.52,1.3,3.3,4.53,5.15,7.82,4.36,2.61-.62,4.43-2.19,5.17-4.85.22-.79.2-1.6.24-2.41.06-1.46.74-2.14,2.2-2.15.19,0,.39,0,.58,0,2.22.07,4.14-.68,5.8-2.13,2.37-2.07,3.33-5.33,2.54-8.26,2.4-.75,3.65-2.32,4-2.82,1.65-1.08,3.07-2.41,4.2-4.01,2.58-3.65,3.5-7.7,2.65-12.11Z"/><path class="cls-6" d="m277.92,134.98c0-1.42-1.13-2.55-2.56-2.55-1.44,0-2.55,1.1-2.56,2.54,0,1.45,1.11,2.57,2.56,2.58,1.4,0,2.55-1.16,2.55-2.57Z"/><path class="cls-6" d="m284.89,119.12c-.01-1.38-1.2-2.56-2.58-2.56-1.44,0-2.55,1.15-2.55,2.6,0,1.44,1.15,2.58,2.58,2.57,1.41,0,2.55-1.18,2.54-2.62Z"/><path class="cls-6" d="m273,105.93c0-1.46-1.15-2.64-2.57-2.64-1.39,0-2.55,1.18-2.55,2.59,0,1.43,1.17,2.59,2.62,2.58,1.38,0,2.51-1.15,2.5-2.53Z"/><path class="cls-6" d="m293.69,119.43c-.85-4.39-3.19-7.8-6.92-10.25-1.18-.78-2.48-1.3-3.81-1.75-.81-.28-1.27-.86-1.42-1.69-.1-.55,0-1.08.26-1.58.66-1.31,1.14-3.22.92-4.68-.39-2.58-2.37-5.47-4.81-6.42-2.16-.84-5.93-2.58-6.41-3.57-1.65-3.38-4.44-6.19-8.05-5.34-3.25.76-5.42,3.48-5.42,6.82,0,3.86,0,7.71,0,11.57,0,.14,0,.27,0,.41v1.41c.11.04.23.04.35.04,3.06,0,3.21,0,6.27,0,.31,0,.46-.09.58-.39.93-2.46,3.11-3.84,5.72-3.67,2.4.16,4.62,2.26,4.98,4.7.4,2.79-1.31,5.44-4,6.17-2.74.75-5.56-.61-6.61-3.26-.21-.53-.46-.63-.96-.63-2.96.02-3.02,0-5.98,0-.12,0-.24,0-.35,0v4.75c0,.11,0,.23,0,.34,0,1.76,0,3.52,0,5.28.17,0,.33-.02.5-.02,6.95,0,11,0,17.95,0,.38,0,.56-.1.7-.48.88-2.41,3.32-3.9,5.8-3.57,2.58.34,4.57,2.35,4.85,4.9.31,2.8-1.5,5.37-4.23,6.01-2.75.65-5.48-.82-6.45-3.5-.12-.34-.29-.43-.63-.43-6.96,0-11.03,0-17.99,0-.17,0-.33-.01-.5-.02,0,2.22,0,4.43,0,6.65.59,0,1.19,0,2.49,0,.83,0,1.36.36,1.7,1.1.72,1.58,1.37,3.2,2.04,4.8.11.27.25.36.54.36,1.61-.01,3.22-.02,4.82,0,.29,0,.43-.09.52-.37.83-2.37,3.23-3.93,5.68-3.69,2.5.24,4.63,2.22,5.02,4.66.49,3.04-1.61,5.91-4.65,6.37-2.5.38-4.99-1.05-5.95-3.47-.17-.42-.35-.54-.8-.54-1.84.04-3.67,0-5.51.02-.96,0-1.59-.4-1.96-1.3-.65-1.57-1.36-3.12-2.04-4.69-.11-.27-.28-.32-.53-.32-.66,0-1.06,0-1.37,0,0,.55,0,1.1,0,1.65,0,6.48,0,12.96,0,19.44,0,.87.13,1.71.45,2.52,1.3,3.3,4.53,5.15,7.82,4.36,2.61-.62,4.43-2.19,5.17-4.85.22-.79.2-1.6.24-2.41.06-1.46.74-2.14,2.2-2.15.19,0,.39,0,.58,0,2.22.07,4.14-.68,5.8-2.13,2.37-2.07,3.33-5.33,2.54-8.26,2.4-.75,3.65-2.32,4-2.82,1.65-1.08,3.07-2.41,4.2-4.01,2.58-3.65,3.5-7.7,2.65-12.11Z"/><path class="cls-6" d="m277.92,134.98c0-1.42-1.13-2.55-2.56-2.55-1.44,0-2.55,1.1-2.56,2.54,0,1.45,1.11,2.57,2.56,2.58,1.4,0,2.55-1.16,2.55-2.57Z"/><path class="cls-6" d="m284.89,119.12c-.01-1.38-1.2-2.56-2.58-2.56-1.44,0-2.55,1.15-2.55,2.6,0,1.44,1.15,2.58,2.58,2.57,1.41,0,2.55-1.18,2.54-2.62Z"/><path class="cls-6" d="m273,105.93c0-1.46-1.15-2.64-2.57-2.64-1.39,0-2.55,1.18-2.55,2.59,0,1.43,1.17,2.59,2.62,2.58,1.38,0,2.51-1.15,2.5-2.53Z"/><path class="cls-4" d="m293.69,119.43c-.85-4.39-3.19-7.8-6.92-10.25-1.18-.78-2.48-1.3-3.81-1.75-.81-.28-1.27-.86-1.42-1.69-.1-.55,0-1.08.26-1.58.66-1.31,1.14-3.22.92-4.68-.39-2.58-2.37-5.47-4.81-6.42-2.16-.84-5.93-2.58-6.41-3.57-1.65-3.38-4.44-6.19-8.05-5.34-3.25.76-5.42,3.48-5.42,6.82,0,3.86,0,7.71,0,11.57,0,.14,0,.27,0,.41v1.41c.11.04.23.04.35.04,3.06,0,3.21,0,6.27,0,.31,0,.46-.09.58-.39.93-2.46,3.11-3.84,5.72-3.67,2.4.16,4.62,2.26,4.98,4.7.4,2.79-1.31,5.44-4,6.17-2.74.75-5.56-.61-6.61-3.26-.21-.53-.46-.63-.96-.63-2.96.02-3.02,0-5.98,0-.12,0-.24,0-.35,0v4.75c0,.11,0,.23,0,.34,0,1.76,0,3.52,0,5.28.17,0,.33-.02.5-.02,6.95,0,11,0,17.95,0,.38,0,.56-.1.7-.48.88-2.41,3.32-3.9,5.8-3.57,2.58.34,4.57,2.35,4.85,4.9.31,2.8-1.5,5.37-4.23,6.01-2.75.65-5.48-.82-6.45-3.5-.12-.34-.29-.43-.63-.43-6.96,0-11.03,0-17.99,0-.17,0-.33-.01-.5-.02,0,2.22,0,4.43,0,6.65.59,0,1.19,0,2.49,0,.83,0,1.36.36,1.7,1.1.72,1.58,1.37,3.2,2.04,4.8.11.27.25.36.54.36,1.61-.01,3.22-.02,4.82,0,.29,0,.43-.09.52-.37.83-2.37,3.23-3.93,5.68-3.69,2.5.24,4.63,2.22,5.02,4.66.49,3.04-1.61,5.91-4.65,6.37-2.5.38-4.99-1.05-5.95-3.47-.17-.42-.35-.54-.8-.54-1.84.04-3.67,0-5.51.02-.96,0-1.59-.4-1.96-1.3-.65-1.57-1.36-3.12-2.04-4.69-.11-.27-.28-.32-.53-.32-.66,0-1.06,0-1.37,0,0,.55,0,1.1,0,1.65,0,6.48,0,12.96,0,19.44,0,.87.13,1.71.45,2.52,1.3,3.3,4.53,5.15,7.82,4.36,2.61-.62,4.43-2.19,5.17-4.85.22-.79.2-1.6.24-2.41.06-1.46.74-2.14,2.2-2.15.19,0,.39,0,.58,0,2.22.07,4.14-.68,5.8-2.13,2.37-2.07,3.33-5.33,2.54-8.26,2.4-.75,3.65-2.32,4-2.82,1.65-1.08,3.07-2.41,4.2-4.01,2.58-3.65,3.5-7.7,2.65-12.11Z"/><path class="cls-4" d="m277.92,134.98c0-1.42-1.13-2.55-2.56-2.55-1.44,0-2.55,1.1-2.56,2.54,0,1.45,1.11,2.57,2.56,2.58,1.4,0,2.55-1.16,2.55-2.57Z"/><path class="cls-4" d="m284.89,119.12c-.01-1.38-1.2-2.56-2.58-2.56-1.44,0-2.55,1.15-2.55,2.6,0,1.44,1.15,2.58,2.58,2.57,1.41,0,2.55-1.18,2.54-2.62Z"/><path class="cls-4" d="m273,105.93c0-1.46-1.15-2.64-2.57-2.64-1.39,0-2.55,1.18-2.55,2.59,0,1.43,1.17,2.59,2.62,2.58,1.38,0,2.51-1.15,2.5-2.53Z"/><path class="cls-3" d="m247.67,119.64c0-.06-.03-.09-.09-.08-.1,0-.21,0-.31,0-4.32,0-8.65,0-12.97,0-.18,0-.18,0-.18.18,0,4.34,0,8.68,0,13.01,0,.09,0,.18,0,.26,0,.06.02.09.09.09.04,0,.08,0,.12,0,2.19,0,4.37,0,6.56,0,2.2,0,4.41,0,6.61,0q.17,0,.17-.17c0-4.36,0-8.71,0-13.07,0-.07,0-.15,0-.22Zm-2.4,11.22c-2.64,0-5.28,0-7.92,0-.28,0-.55,0-.83,0-.14,0-.15,0-.15-.16,0-2.25,0-4.5,0-6.75,0-.67,0-1.33,0-2,0-.14,0-.15.15-.15,2.91,0,5.82,0,8.73,0,.18,0,.18,0,.18.18,0,1.45,0,2.89,0,4.34h0c0,1.46,0,2.93,0,4.39,0,.14,0,.15-.16.15Z"/><path class="cls-3" d="m253.41,139.81c0-.14,0-.27,0-.41v-9.12c0-.11,0-.23,0-.34,0-6.48,0-12.96,0-19.44,0-6.48,0-12.96,0-19.44,0-.87-.13-1.71-.45-2.52-1.3-3.3-4.53-5.15-7.82-4.36-2.61.62-4.43,2.19-5.17,4.85-.22.79-.2,1.6-.24,2.41-.06,1.46-.74,2.14-2.2,2.15-.19,0-.39,0-.58,0-2.22-.07-4.14.68-5.8,2.13-2.37,2.07-3.33,5.33-2.54,8.26-2.4.75-3.65,2.32-4,2.82-1.65,1.08-3.07,2.41-4.2,4.01-2.58,3.65-3.5,7.7-2.65,12.11.85,4.39,3.19,7.8,6.92,10.25,1.18.78,2.4.99,3.18,2.15.58.87,1.11,2.07,1.16,2.9.08,1.47-.51,3.19-.29,4.64.39,2.58,1.92,6.02,4.35,6.96,2.16.84,4.84,1.79,6.09,2.9,1.84,1.62,3.77,6.09,8.82,5.46,3.31-.41,5.42-3.48,5.42-6.82,0-3.86,0-7.71,0-11.57Zm-1.83-9.13c-.16.07-.34.1-.52.1-.33,0-.65,0-.98,0-.11,0-.13.04-.13.13,0,.31,0,.62,0,.93-.01.66-.24,2.44-.72,2.9-.43.41-2.51.63-3.11.65-.33.01-.65,0-.98,0-.11,0-.15.03-.15.14,0,.32,0,.64,0,.96-.01.42-.19.76-.55.99-.7.45-1.65-.03-1.72-.86-.03-.36,0-.72-.02-1.08,0-.14,0-.15-.15-.15-.65,0-2.7,0-3.36,0-.1,0-.14.03-.13.13,0,.31,0,.61,0,.92,0,.19-.02.38-.1.56-.2.45-.56.64-1.04.65-.49,0-.83-.25-1.04-.69-.08-.16-.1-.34-.11-.51,0-.3,0-.6,0-.91q0-.15-.15-.15c-.32,0-2.2.01-2.53,0-.86-.04-1.52-.43-1.96-1.18-.22-.37-.32-.78-.31-1.21,0-.29,0-2.31,0-2.6,0-.1-.03-.14-.13-.14-.33,0-.66,0-.99,0-.55-.01-1.01-.39-1.11-.93-.12-.62.23-1.28.98-1.34.37-.03.74-.01,1.11-.01.1,0,.14-.03.14-.14,0-.65,0-2.69,0-2.76,0-.67,0-.14,0-.81,0-.09-.04-.1-.12-.1-.31,0-.61,0-.92,0-.53-.01-.92-.24-1.13-.73-.32-.73.19-1.52.99-1.55.35,0,.7,0,1.05,0,.1,0,.13-.03.13-.13,0-.31,0-1.84,0-2.15,0-1.16.85-2.13,2-2.3.11-.02.22-.02.33-.02.31,0,2.18,0,2.49,0,.1,0,.14-.03.13-.13,0-.35,0-.7,0-1.05,0-.43.29-.84.68-1,.43-.17.93-.08,1.24.24.27.27.36.61.36.98,0,.28,0,.56,0,.84,0,.09.03.12.12.12.66,0,2.39,0,3.06,0,.1,0,.12-.04.12-.13,0-.35,0-.69.01-1.04.03-.56.48-1.05,1.03-1.09.59-.04,1.11.36,1.22.94.02.1.03.2.02.31,0,.29,0,.57,0,.86q0,.14.15.14c.32,0,2.53,0,2.85,0,1.07,0,2.03.79,2.24,1.84.03.17.05.34.05.51,0,.31,0,2.34,0,2.64,0,.1.03.13.12.13.33,0,.66,0,.99,0,.57.01,1.02.38,1.12.94.11.6-.25,1.24-.98,1.32-.37.04-.74.01-1.11.02-.14,0-.14,0-.14.15,0,.32,0,.65,0,.97,0,.33,0,.66,0,.99,0,.09,0,.92,0,1.57,0,.1.03.13.13.13.37,0,.74-.02,1.1.01.49.05.94.47,1.02.98.08.49-.18.98-.63,1.18Z"/><path class="cls-4" d="m247.67,119.64c0-.06-.03-.09-.09-.08-.1,0-.21,0-.31,0-4.32,0-8.65,0-12.97,0-.18,0-.18,0-.18.18,0,4.34,0,8.68,0,13.01,0,.09,0,.18,0,.26,0,.06.02.09.09.09.04,0,.08,0,.12,0,2.19,0,4.37,0,6.56,0,2.2,0,4.41,0,6.61,0q.17,0,.17-.17c0-4.36,0-8.71,0-13.07,0-.07,0-.15,0-.22Zm-2.4,11.22c-2.64,0-5.28,0-7.92,0-.28,0-.55,0-.83,0-.14,0-.15,0-.15-.16,0-2.25,0-4.5,0-6.75,0-.67,0-1.33,0-2,0-.14,0-.15.15-.15,2.91,0,5.82,0,8.73,0,.18,0,.18,0,.18.18,0,1.45,0,2.89,0,4.34h0c0,1.46,0,2.93,0,4.39,0,.14,0,.15-.16.15Z"/><path class="cls-4" d="m253.41,139.81c0-.14,0-.27,0-.41v-9.12c0-.11,0-.23,0-.34,0-6.48,0-12.96,0-19.44,0-6.48,0-12.96,0-19.44,0-.87-.13-1.71-.45-2.52-1.3-3.3-4.53-5.15-7.82-4.36-2.61.62-4.43,2.19-5.17,4.85-.22.79-.2,1.6-.24,2.41-.06,1.46-.74,2.14-2.2,2.15-.19,0-.39,0-.58,0-2.22-.07-4.14.68-5.8,2.13-2.37,2.07-3.33,5.33-2.54,8.26-2.4.75-3.65,2.32-4,2.82-1.65,1.08-3.07,2.41-4.2,4.01-2.58,3.65-3.5,7.7-2.65,12.11.85,4.39,3.19,7.8,6.92,10.25,1.18.78,2.4.99,3.18,2.15.58.87,1.11,2.07,1.16,2.9.08,1.47-.51,3.19-.29,4.64.39,2.58,1.92,6.02,4.35,6.96,2.16.84,4.84,1.79,6.09,2.9,1.84,1.62,3.77,6.09,8.82,5.46,3.31-.41,5.42-3.48,5.42-6.82,0-3.86,0-7.71,0-11.57Zm-1.83-9.13c-.16.07-.34.1-.52.1-.33,0-.65,0-.98,0-.11,0-.13.04-.13.13,0,.31,0,.62,0,.93-.01.66-.24,2.44-.72,2.9-.43.41-2.51.63-3.11.65-.33.01-.65,0-.98,0-.11,0-.15.03-.15.14,0,.32,0,.64,0,.96-.01.42-.19.76-.55.99-.7.45-1.65-.03-1.72-.86-.03-.36,0-.72-.02-1.08,0-.14,0-.15-.15-.15-.65,0-2.7,0-3.36,0-.1,0-.14.03-.13.13,0,.31,0,.61,0,.92,0,.19-.02.38-.1.56-.2.45-.56.64-1.04.65-.49,0-.83-.25-1.04-.69-.08-.16-.1-.34-.11-.51,0-.3,0-.6,0-.91q0-.15-.15-.15c-.32,0-2.2.01-2.53,0-.86-.04-1.52-.43-1.96-1.18-.22-.37-.32-.78-.31-1.21,0-.29,0-2.31,0-2.6,0-.1-.03-.14-.13-.14-.33,0-.66,0-.99,0-.55-.01-1.01-.39-1.11-.93-.12-.62.23-1.28.98-1.34.37-.03.74-.01,1.11-.01.1,0,.14-.03.14-.14,0-.65,0-2.69,0-2.76,0-.67,0-.14,0-.81,0-.09-.04-.1-.12-.1-.31,0-.61,0-.92,0-.53-.01-.92-.24-1.13-.73-.32-.73.19-1.52.99-1.55.35,0,.7,0,1.05,0,.1,0,.13-.03.13-.13,0-.31,0-1.84,0-2.15,0-1.16.85-2.13,2-2.3.11-.02.22-.02.33-.02.31,0,2.18,0,2.49,0,.1,0,.14-.03.13-.13,0-.35,0-.7,0-1.05,0-.43.29-.84.68-1,.43-.17.93-.08,1.24.24.27.27.36.61.36.98,0,.28,0,.56,0,.84,0,.09.03.12.12.12.66,0,2.39,0,3.06,0,.1,0,.12-.04.12-.13,0-.35,0-.69.01-1.04.03-.56.48-1.05,1.03-1.09.59-.04,1.11.36,1.22.94.02.1.03.2.02.31,0,.29,0,.57,0,.86q0,.14.15.14c.32,0,2.53,0,2.85,0,1.07,0,2.03.79,2.24,1.84.03.17.05.34.05.51,0,.31,0,2.34,0,2.64,0,.1.03.13.12.13.33,0,.66,0,.99,0,.57.01,1.02.38,1.12.94.11.6-.25,1.24-.98,1.32-.37.04-.74.01-1.11.02-.14,0-.14,0-.14.15,0,.32,0,.65,0,.97,0,.33,0,.66,0,.99,0,.09,0,.92,0,1.57,0,.1.03.13.13.13.37,0,.74-.02,1.1.01.49.05.94.47,1.02.98.08.49-.18.98-.63,1.18Z"/><path class="cls-1" d="m114.1,106.25v62.14h-17.04v-8.24h-62.56v8.24h-17.04v-61.02c-3.21,1.54-6.7,3.07-10.33,4.47L.44,101.92c11.87-4.89,20.25-11.17,24.85-18.85H3.65v-10.89h25.55c.28-1.82.42-3.77.42-5.59v-6.7h-8.8c-3.21,3.91-6.56,7.68-10.33,11.31l-8.66-5.86c7.12-8.94,12.15-17.87,14.94-26.95l14.66,4.89-3.35,6.28h36.58v10.33h-18.85v6.7c0,1.82-.14,3.77-.42,5.59h22.34v10.89h-21.78c7.54,4.61,14.24,9.22,20.25,14.1l-7.54,8.1c-5.73-4.05-13.13-8.1-22.2-12.29-4.19,4.89-9.77,9.36-16.62,13.26h94.25Zm-79.59,21.36h62.56v-9.91h-62.56v9.91Zm62.56,11.17h-62.56v9.91h62.56v-9.91Z"/><path class="cls-1" d="m136.32,150.17c2.52-4.57,4.57-9.37,6.22-14.33l8.35,3.46c-2.44,4.8-5.35,9.37-8.74,13.54l-5.83-2.68Zm1.73-30.15h52.51v-3.62h-45.74v-5.35h6.53v-3.39h-12.05v-5.04h12.05v-2.91h-9.29v-4.88h9.29v-2.99h-11.1v-5.04h11.1v-4.72h9.13v4.72h10.47v5.04h-10.47v2.99h8.98v4.88h-8.98v2.91h10.47v5.04h-10.47v3.39h22.99v-3.39h-10.63v-5.04h10.63v-3.07h-9.29v-4.88h9.29v-2.83h-10.47v-5.04h10.47v-4.72h9.13v4.72h11.73v5.04h-11.73v2.83h9.76v4.88h-9.76v3.07h12.52v5.04h-12.52v3.39h7.4v8.98h6.77v5.51h-6.77v9.05h-26.45c2.44,1.81,5.12,4.02,8.03,6.46l-4.88,3.86c-3.94-2.52-7.87-4.72-11.73-6.69l4.72-3.62h-26.06v-5.35h46.92v-3.7h-52.51v-5.51Zm22.44,32.51c-4.96-.47-7.48-2.99-7.48-7.48v-8.27h9.45v7.09c0,1.57.47,2.44,1.5,2.68,2.28.32,5.35.47,9.37.47s6.93-.16,8.9-.47c1.26-.08,2.05-.63,2.44-1.58.31-.94.47-2.76.47-5.35l8.66,3.94c-.08,2.99-.79,5.2-2.05,6.61-1.26,1.34-3.46,2.13-6.53,2.36-2.76.24-6.85.32-12.28.32s-9.53-.08-12.44-.32Zm39.99-17.08c2.91,4.96,5.35,9.92,7.24,14.72l-5.98,2.52c-2.44-4.41-5.67-8.98-9.61-13.62l8.35-3.62Z"/><path class="cls-1" d="m94.34,86.14c-3.94-.53-9.62-1.3-13.56-1.83-.54-.07-.54-.07-.47-.62.3-2.25.1-.75.42-3,.05-.35-.04-.57-.3-.79-2.64-2.29-3.47-4.4-4.9-7.59-1.34-2.97-1.53-6.45-1.43-9.72.2-6.46,2.84-11.83,7.54-16.17,4.15-3.83,9.12-5.82,14.76-6.11,4.83-.25,9.26,1.01,13.36,3.52,2.43,1.49,4.5,3.4,6.23,5.66,2.76,3.61,4.3,7.7,4.74,12.22.23,2.41.02,4.78-.57,7.12-1.12,4.44-1.9,5.7-6.19,11.3-1.69,1.53-2.38,2.33-4.36,3.77-.26.12-.3.31-.33.55-.31,2.28-.11.79-.42,3.07q-.07.54-.61.47c-3.95-.53-9.93-1.34-13.89-1.87Z"/><path class="cls-1" d="m93.15,95.53c-3.95-.53-9.64-1.3-13.59-1.83-.7-.09-.7-.1-.63-.62.23-1.73.48-3.47.69-5.21.05-.39.25-.49.73-.42.42.07.85.11,1.27.17,7.35.99,18.46,2.49,25.81,3.48,1.41.19,1.16.21,1.06,1.02-.21,1.63-.43,3.25-.65,4.88-.07.49-.07.49-.76.4-3.97-.53-9.96-1.34-13.93-1.88Z"/><path class="cls-7" d="m95.57,169.89v-8.24h-59.56v8.24H15.97v-60.16c-2.8,1.29-5.58,2.46-8.29,3.51l-1.11.43-8.4-12.43,1.7-.7c10.41-4.29,18-9.65,22.63-15.96H2.15v-13.89h4.9l-7.39-5.01,1.01-1.27c7.17-9,11.97-17.65,14.68-26.46l.45-1.47,17.8,5.93-3.01,5.64h35.58v13.33h-18.85v5.2c0,1.36-.07,2.74-.21,4.09h22.14v13.89h-18.06c6.04,3.87,11.29,7.63,15.97,11.44l1.24,1.01-7.19,7.73h54.4v65.14h-20.04Zm0-22.69v-6.92h-59.56v6.92h59.56Zm0-21.09v-6.91h-59.56v6.91h59.56Zm-40.34-21.36c-4.9-3.2-10.95-6.47-18.37-9.93-3.2,3.57-7.13,6.89-11.71,9.93h30.08Zm-27.33-34.07c.15-1.33.23-2.72.23-4.09v-5.2h-6.59c-2.93,3.54-5.63,6.54-8.37,9.29h14.73Z"/><path class="cls-7" d="m134.23,150.86l.78-1.41c2.38-4.3,4.43-9.04,6.11-14.08l.51-1.53.52.21v-6.32h46.92v-.7h-52.51v-8.51h52.51v-.62h-45.74v-8.35h6.53v-.39h-12.05v-8.04h2.76v-7.79h-1.81v-8.04h11.1v-4.72h12.13v4.72h19.99v-4.72h12.13v4.72h11.73v8.04h-1.97v7.72h-9.76v.07h12.52v8.04h-12.52v.39h7.4v8.98h6.77v8.51h-6.77v7.21l.27.45c2.95,5.03,5.43,10.05,7.35,14.93l.54,1.36-8.58,3.61-.65-1.18c-1.46-2.63-3.22-5.34-5.26-8.11-.29,2.49-1.06,4.46-2.31,5.86-1.54,1.64-4.07,2.59-7.54,2.86-2.58.22-6.4.32-12.4.32s-9.83-.1-12.56-.32c-5.72-.54-8.86-3.73-8.86-8.97v-3.7c-2.39,4.49-5.14,8.67-8.2,12.44l-.73.9-8.35-3.84Zm30.03-5.78c2.22.3,5.19.45,9.06.45.54,0,1.06,0,1.56,0-3.31-2.08-6.78-4.04-10.58-5.97l-.34-.17v4.51c0,.5.05,1.1.3,1.2Zm14.23.33c1.41-.08,2.58-.19,3.5-.33l.14-.02c.78-.05,1-.33,1.13-.6.12-.38.28-1.24.35-3.09l-5.12,4.05Zm13.32-4.4c-.27-.32-.54-.64-.81-.97l-1.31-1.54,5.57-2.42h-17.32c1.41,1.14,2.93,2.4,4.62,3.8l1.07.89c0-.35.01-.74.01-1.16v-2.33l8.17,3.71Zm-40.29-3.06v-1.86h-4.48l4.48,1.86Zm12.45-.85l1.32-1.01h-1.32v1.01Zm18.02-27.55v-.39h-19.99v.39h19.99Zm0-8.42v-.07h-9.29v-7.72h-1.72v7.79h11.01Z"/><path class="cls-7" d="m108.55,89.54c-.13,0-.3-.02-.53-.05l-27.45-3.7c-1.36-.18-1.94-.94-1.75-2.3l.24-1.75.13-.93c-2.52-2.27-3.51-4.47-4.75-7.24l-.29-.65c-1.56-3.46-1.65-7.37-1.56-10.38.21-6.7,2.9-12.5,8.02-17.22,4.33-4,9.61-6.19,15.69-6.51.43-.02.86-.03,1.29-.03,4.5,0,8.85,1.27,12.93,3.78,2.53,1.55,4.76,3.58,6.63,6.03,2.87,3.76,4.57,8.13,5.04,12.98.24,2.5.03,5.06-.61,7.63-1.19,4.71-2.06,6.11-6.46,11.85l-.08.11-.1.09c-.47.42-.86.79-1.22,1.13-.89.84-1.67,1.57-3.03,2.57-.13.95-.38,2.78-.38,2.78-.2,1.49-1.08,1.8-1.77,1.8Z"/><path class="cls-7" d="m107.53,98.95c-.15,0-.36-.02-.65-.06l-27.52-3.71c-.6-.08-2.18-.29-1.91-2.31l.2-1.45c.17-1.24.34-2.49.49-3.73.13-1.07.9-1.76,1.96-1.76.15,0,.31.01.5.04.24.04.49.07.74.1l.5.06,25.81,3.48c.91.12,1.63.22,2.11.88.44.61.33,1.24.27,1.58-.01.07-.03.14-.04.23-.16,1.28-.34,2.56-.51,3.84l-.14,1.05c-.2,1.52-1.21,1.75-1.79,1.75Z"/><path class="cls-2" d="m114.1,106.25v62.14h-17.04v-8.24h-62.56v8.24h-17.04v-61.02c-3.21,1.54-6.7,3.07-10.33,4.47L.44,101.92c11.87-4.89,20.25-11.17,24.85-18.85H3.65v-10.89h25.55c.28-1.82.42-3.77.42-5.59v-6.7h-8.8c-3.21,3.91-6.56,7.68-10.33,11.31l-8.66-5.86c7.12-8.94,12.15-17.87,14.94-26.95l14.66,4.89-3.35,6.28h36.58v10.33h-18.85v6.7c0,1.82-.14,3.77-.42,5.59h22.34v10.89h-21.78c7.54,4.61,14.24,9.22,20.25,14.1l-7.54,8.1c-5.73-4.05-13.13-8.1-22.2-12.29-4.19,4.89-9.77,9.36-16.62,13.26h94.25Zm-79.59,21.36h62.56v-9.91h-62.56v9.91Zm62.56,11.17h-62.56v9.91h62.56v-9.91Z"/><path class="cls-2" d="m136.32,150.17c2.52-4.57,4.57-9.37,6.22-14.33l8.35,3.46c-2.44,4.8-5.35,9.37-8.74,13.54l-5.83-2.68Zm1.73-30.15h52.51v-3.62h-45.74v-5.35h6.53v-3.39h-12.05v-5.04h12.05v-2.91h-9.29v-4.88h9.29v-2.99h-11.1v-5.04h11.1v-4.72h9.13v4.72h10.47v5.04h-10.47v2.99h8.98v4.88h-8.98v2.91h10.47v5.04h-10.47v3.39h22.99v-3.39h-10.63v-5.04h10.63v-3.07h-9.29v-4.88h9.29v-2.83h-10.47v-5.04h10.47v-4.72h9.13v4.72h11.73v5.04h-11.73v2.83h9.76v4.88h-9.76v3.07h12.52v5.04h-12.52v3.39h7.4v8.98h6.77v5.51h-6.77v9.05h-26.45c2.44,1.81,5.12,4.02,8.03,6.46l-4.88,3.86c-3.94-2.52-7.87-4.72-11.73-6.69l4.72-3.62h-26.06v-5.35h46.92v-3.7h-52.51v-5.51Zm22.44,32.51c-4.96-.47-7.48-2.99-7.48-7.48v-8.27h9.45v7.09c0,1.57.47,2.44,1.5,2.68,2.28.32,5.35.47,9.37.47s6.93-.16,8.9-.47c1.26-.08,2.05-.63,2.44-1.58.31-.94.47-2.76.47-5.35l8.66,3.94c-.08,2.99-.79,5.2-2.05,6.61-1.26,1.34-3.46,2.13-6.53,2.36-2.76.24-6.85.32-12.28.32s-9.53-.08-12.44-.32Zm39.99-17.08c2.91,4.96,5.35,9.92,7.24,14.72l-5.98,2.52c-2.44-4.41-5.67-8.98-9.61-13.62l8.35-3.62Z"/><path class="cls-2" d="m94.34,86.14c-3.94-.53-9.62-1.3-13.56-1.83-.54-.07-.54-.07-.47-.62.3-2.25.1-.75.42-3,.05-.35-.04-.57-.3-.79-2.64-2.29-3.47-4.4-4.9-7.59-1.34-2.97-1.53-6.45-1.43-9.72.2-6.46,2.84-11.83,7.54-16.17,4.15-3.83,9.12-5.82,14.76-6.11,4.83-.25,9.26,1.01,13.36,3.52,2.43,1.49,4.5,3.4,6.23,5.66,2.76,3.61,4.3,7.7,4.74,12.22.23,2.41.02,4.78-.57,7.12-1.12,4.44-1.9,5.7-6.19,11.3-1.69,1.53-2.38,2.33-4.36,3.77-.26.12-.3.31-.33.55-.31,2.28-.11.79-.42,3.07q-.07.54-.61.47c-3.95-.53-9.93-1.34-13.89-1.87Z"/><path class="cls-2" d="m93.15,95.53c-3.95-.53-9.64-1.3-13.59-1.83-.7-.09-.7-.1-.63-.62.23-1.73.48-3.47.69-5.21.05-.39.25-.49.73-.42.42.07.85.11,1.27.17,7.35.99,18.46,2.49,25.81,3.48,1.41.19,1.16.21,1.06,1.02-.21,1.63-.43,3.25-.65,4.88-.07.49-.07.49-.76.4-3.97-.53-9.96-1.34-13.93-1.88Z"/><path class="cls-5" d="m119.84,37.58c.96-1.03,1.92-2.06,2.87-3.11.21-.23.34-.22.56-.02,1.33,1.24,2.67,2.48,4.01,3.71.26.24.25.4.02.65-1.93,2.07-3.85,4.15-5.77,6.23-.21.23-.36.25-.6.03-1.33-1.25-2.67-2.48-4.01-3.71-.24-.22-.22-.38-.01-.6.99-1.06,1.97-2.12,2.95-3.18,0,0,0,0,0,0Z"/><path class="cls-5" d="m135.01,54.6c-.07.07-.17.09-.26.11-2.82.58-5.63,1.23-8.44,1.88-.24.06-.36,0-.42-.24-.4-1.82-.8-3.63-1.22-5.45-.07-.32.1-.37.34-.42,2.36-.53,4.72-1.06,7.08-1.59.45-.1.9-.22,1.34-.34.23-.06.33,0,.38.24.39,1.87.75,3.74,1.21,5.6.02.07.04.14-.01.21Z"/></svg>