<svg width="296" height="55" xmlns="http://www.w3.org/2000/svg" xmlns:xlink="http://www.w3.org/1999/xlink" xml:space="preserve" overflow="hidden"><defs><clipPath id="clip0"><rect x="3" y="17" width="296" height="55"/></clipPath><clipPath id="clip1"><path d="M26.4712 23.962C32.4461 23.3819 35.486 24.8903 34.6474 29.4156 37.1631 25.7025 38.8403 21.0612 31.3979 18.9726 29.9304 20.481 28.0436 22.5696 26.4712 23.962"/></clipPath><linearGradient x1="33.3555" y1="11.0452" x2="22.4477" y2="1.22378" gradientUnits="userSpaceOnUse" spreadMethod="pad" id="fill2"><stop offset="0" stop-color="#C94F1B"/><stop offset="0.41" stop-color="#FAB900"/><stop offset="1" stop-color="#FABA00"/></linearGradient><clipPath id="clip3"><path d="M12.9492 42.2954C9.59488 52.8544 30.769 40.903 34.6474 29.8797 25.7375 39.3945 15.8842 43.6878 12.9492 42.2954"/></clipPath><linearGradient x1="7.81867" y1="22.6832" x2="31.0541" y2="21.0586" gradientUnits="userSpaceOnUse" spreadMethod="pad" id="fill4"><stop offset="0" stop-color="#AB4419"/><stop offset="0.1156" stop-color="#CA720F"/><stop offset="0.28" stop-color="#FABA00"/><stop offset="0.7435" stop-color="#EDA800"/><stop offset="0.78" stop-color="#ECA600"/><stop offset="0.9161" stop-color="#C26710"/><stop offset="1" stop-color="#AB4419"/></linearGradient><clipPath id="clip5"><path d="M39.8885 27.327C29.8256 27.9072 11.6913 36.2616 12.9492 42.2954 16.0939 36.8418 45.3392 24.7743 44.8151 35.3333 48.1694 29.8797 46.073 27.5591 41.7753 27.327L39.8885 27.327Z"/></clipPath><linearGradient x1="42.1249" y1="14.9535" x2="8.59306" y2="14.9535" gradientUnits="userSpaceOnUse" spreadMethod="pad" id="fill6"><stop offset="0" stop-color="#9F0038"/><stop offset="0.25" stop-color="#E00078"/><stop offset="1" stop-color="#E2007A"/></linearGradient><clipPath id="clip7"><path d="M27.4146 42.2954C21.0205 51.462 42.6139 47.981 44.7103 35.5654 42.4042 39.8587 28.8822 48.4451 27.4146 42.2954"/></clipPath><linearGradient x1="21.8837" y1="23.9515" x2="40.3266" y2="23.9515" gradientUnits="userSpaceOnUse" spreadMethod="pad" id="fill8"><stop offset="0" stop-color="#8C052B"/><stop offset="0.0757882" stop-color="#A60343"/><stop offset="0.25" stop-color="#E00078"/><stop offset="1" stop-color="#E2007A"/></linearGradient><clipPath id="clip9"><path d="M27.5195 42.1793C37.4776 35.3333 41.5656 39.6266 35.0667 48.6772 44.1862 40.6709 41.5656 35.7975 36.8486 35.7975 33.8088 35.7975 29.8256 37.77 27.5195 42.1793"/></clipPath><linearGradient x1="36.0595" y1="25.8247" x2="24.6541" y2="17.8382" gradientUnits="userSpaceOnUse" spreadMethod="pad" id="fill10"><stop offset="0" stop-color="#00483F"/><stop offset="0.0460326" stop-color="#0A5147"/><stop offset="0.1247" stop-color="#256A5B"/><stop offset="0.2266" stop-color="#52927C"/><stop offset="0.34" stop-color="#8BC6A7"/><stop offset="1" stop-color="#8DC9AB"/></linearGradient><clipPath id="clip11"><path d="M14.1022 64.6899C9.59488 78.2658 29.7207 63.5295 35.1715 49.0253 29.4063 55.2911 15.6746 68.8671 14.1022 64.6899"/></clipPath><linearGradient x1="7.79577" y1="41.1934" x2="30.8651" y2="43.212" gradientUnits="userSpaceOnUse" spreadMethod="pad" id="fill12"><stop offset="0" stop-color="#00483F"/><stop offset="0.0460326" stop-color="#0A5147"/><stop offset="0.1247" stop-color="#256A5B"/><stop offset="0.2266" stop-color="#52927C"/><stop offset="0.34" stop-color="#8BC6A7"/><stop offset="0.66" stop-color="#8BC8AA"/><stop offset="0.6796" stop-color="#80BEA2"/><stop offset="0.7878" stop-color="#498C78"/><stop offset="0.8811" stop-color="#226759"/><stop offset="0.9549" stop-color="#095046"/><stop offset="1" stop-color="#00483F"/></linearGradient><clipPath id="clip13"><path d="M14.1022 64.6899C17.6662 55.6392 51.8382 40.0907 46.7019 60.5127 54.7732 50.5338 50.3707 46.4726 42.509 46.4726 31.6075 46.4726 14.2071 54.1308 14.1022 64.6899"/></clipPath><linearGradient x1="44.6592" y1="43.0006" x2="14.6534" y2="20.3891" gradientUnits="userSpaceOnUse" spreadMethod="pad" id="fill14"><stop offset="0" stop-color="#003F7D"/><stop offset="0.3063" stop-color="#007EC1"/><stop offset="0.36" stop-color="#0089CD"/><stop offset="0.78" stop-color="#008BD0"/><stop offset="0.8687" stop-color="#006BAD"/><stop offset="1" stop-color="#003F7D"/></linearGradient><clipPath id="clip15"><path d="M46.7019 60.5127C43.9766 64.2257 31.0834 70.1435 32.0268 59.5844 23.5362 68.2869 40.5174 76.4093 46.7019 60.5127"/></clipPath><linearGradient x1="25.3" y1="46.0424" x2="42.3115" y2="46.0424" gradientUnits="userSpaceOnUse" spreadMethod="pad" id="fill16"><stop offset="0" stop-color="#003F7D"/><stop offset="0.2042" stop-color="#007EC1"/><stop offset="0.24" stop-color="#0089CD"/><stop offset="1" stop-color="#008BD0"/></linearGradient><clipPath id="clip17"><path d="M32.0268 59.4684C35.1715 56.6835 38.8403 58.308 38.8403 62.3692L42.7187 59.5844C42.0898 56.7996 40.0981 55.1751 37.8969 55.1751 35.9052 55.1751 33.704 56.4515 32.0268 59.4684"/></clipPath><linearGradient x1="36.0837" y1="41.6499" x2="29.9917" y2="33.8522" gradientUnits="userSpaceOnUse" spreadMethod="pad" id="fill18"><stop offset="0" stop-color="#003F7D"/><stop offset="0.15" stop-color="#00407E"/><stop offset="0.2987" stop-color="#006CAE"/><stop offset="0.39" stop-color="#0089CD"/><stop offset="1" stop-color="#008BD0"/></linearGradient></defs><g clip-path="url(#clip0)" transform="translate(-3 -17)"><path d="M194.55 8.90989C194.55 8.90989 198.009 8.59542 198.743 12.1594 199.477 15.7233 197.59 17.6101 196.332 18.6583 196.332 18.6583 195.284 19.7066 193.921 20.2307L192.978 20.5451C192.978 20.5451 195.598 20.65 197.485 18.6583 199.372 16.6667 200.106 13.9414 199.372 11.0063 198.638 8.07131 194.445 8.90989 194.55 8.90989Z" fill="#5D5D5D" transform="matrix(1 0 0 1.10696 4.35377 17)"/><path d="M188.47 14.9896C188.47 14.9896 189.833 12.4738 191.405 11.1112 191.405 11.1112 193.082 8.90989 195.913 9.01471 195.913 9.01471 197.171 9.01471 197.904 9.22435 197.904 9.22435 194.864 8.17613 192.978 9.22435 191.091 10.2726 188.994 13.2076 188.47 14.9896Z" fill="#5D5D5D" transform="matrix(1 0 0 1.10696 4.35377 17)"/><path d="M190.672 24.5284C193.607 29.3502 198.114 33.1238 203.355 35.4299L203.145 35.8492C200.63 36.3733 198.848 38.4697 198.009 41.2999 191.825 35.7444 188.261 29.2454 186.583 15.5137L186.583 38.4697C186.583 42.5578 185.64 44.7591 178.827 45.388 178.617 43.3964 178.407 42.0337 177.569 41.0903 176.73 40.1469 175.787 39.518 173.271 39.0987L173.271 38.5746C173.271 38.5746 178.512 38.889 179.56 38.889 180.294 38.889 180.504 38.6794 180.504 38.1553L180.504 20.3355C180.294 20.3355 179.98 20.4403 179.665 20.4403 177.778 28.7213 173.481 36.6878 163.837 41.2999L163.523 40.8806C169.393 35.6395 172.432 27.4634 173.586 19.6017L164.99 19.6017 164.571 18.4487 173.271 18.4487 176.206 15.4089 180.504 19.0776 180.504 6.07969 188.051 6.81344C187.946 7.33755 187.632 7.75684 186.583 7.86166L186.583 12.6835C187.317 16.9812 187.841 20.021 190.672 24.5284" fill="#3F3F3F" transform="matrix(1 0 0 1.10696 4.35377 17)"/><path d="M237.737 34.172C237.737 34.5913 235.326 35.7444 233.334 35.7444L232.391 35.7444 232.391 20.65C232.181 20.8596 231.867 20.9644 231.552 20.8596L224.11 20.8596 224.11 23.585C235.85 26.8345 230.714 35.954 226.101 31.8659 225.892 29.455 225.263 27.0441 224.11 24.8429L224.11 43.606C224.11 44.0253 222.223 45.2832 219.393 45.2832L218.345 45.2832 218.345 30.6081C215.829 33.7527 212.789 36.4781 209.33 38.6794L208.911 38.2601C212.789 33.7527 215.619 27.0441 217.087 20.8596L210.273 20.8596 209.959 19.7066 218.24 19.7066 218.24 13.3124C215.41 13.5221 212.475 13.7317 209.644 13.8365L209.54 13.4172C215.095 11.5304 220.441 9.01471 225.473 5.97486L231.867 11.7401C231.238 12.1594 230.19 12.2642 228.617 11.7401 227.255 12.0546 225.682 12.2642 224.005 12.5787L224.005 19.6017 224.844 19.6017 227.674 15.5137C227.674 15.5137 230.504 18.0294 232.286 19.8114L232.286 9.32917 239.204 9.95811C239.099 10.4822 238.785 11.0063 237.632 11.1112L237.737 34.172ZM248.429 7.23273C248.324 7.86166 247.904 8.28095 246.961 8.38577L246.961 38.3649C246.961 42.2433 246.122 44.3398 239.728 44.8639 239.624 42.9771 239.414 41.6144 238.68 40.7758 237.946 39.9372 237.003 39.2035 234.802 38.889L234.802 38.3649C234.802 38.3649 239.414 38.6794 240.357 38.6794 240.986 38.6794 241.196 38.4697 241.196 37.9456L241.196 6.49898 248.429 7.23273Z" fill="#3F3F3F" transform="matrix(1 0 0 1.10696 4.35377 17)"/><path d="M292.978 24.0043C292.559 24.4236 291.93 24.738 291.301 24.738 291.091 37.4215 290.672 41.6144 288.471 43.5012 287.108 44.6542 285.326 45.2832 282.705 45.2832 282.705 43.5012 282.601 42.1385 281.972 41.2999 281.028 40.3565 279.875 39.6228 278.513 39.4131L278.513 38.9939C279.875 39.0987 282.077 39.2035 282.81 39.2035 283.23 39.2035 283.754 39.0987 284.068 38.7842 285.012 37.8408 285.326 33.4383 285.431 23.6898L265.2 23.6898C264.99 31.0274 263.523 39.518 254.403 45.0735L254.089 44.8639C258.806 37.9456 259.225 29.2454 259.225 21.0693L259.225 7.23273 266.144 9.53882 281.552 9.53882 284.173 6.70862 289.624 10.7967C289.204 11.3208 288.68 11.6353 288.051 11.7401L288.051 18.868C288.051 19.1825 285.012 20.021 283.02 20.021L281.972 20.021 281.972 17.8198 265.2 17.8198 265.2 22.6416 285.116 22.6416 288.051 19.7066 292.978 24.0043ZM265.2 10.6919 265.2 16.6667 281.867 16.6667 281.867 10.6919 265.2 10.6919ZM281.552 37.0022C281.552 37.4215 278.827 38.4697 277.045 38.4697L275.997 38.4697 275.997 36.1637 271.804 36.1637 271.804 38.7842C271.804 39.2035 269.393 40.3565 267.192 40.3565L266.458 40.3565 266.458 25.5766 272.014 27.7779 275.578 27.7779 277.988 25.2621 282.81 28.9309C282.496 29.2454 281.972 29.5599 281.552 29.6647L281.552 37.0022 281.552 37.0022ZM275.997 35.0106 275.997 28.9309 271.804 28.9309 271.804 34.9058 275.997 35.0106Z" fill="#3F3F3F" transform="matrix(1 0 0 1.10696 4.35377 17)"/><path d="M78.5118 10.587C78.5118 10.587 79.9793 11.6353 80.8179 12.369 80.8179 12.5787 80.6083 12.5787 80.2938 12.5787L65.6187 12.5787 65.5139 12.1594 72.2225 12.1594C72.0128 11.4256 71.6984 10.6919 71.0694 10.1678L71.1743 10.0629C74.5286 9.64364 74.843 11.4256 74.0045 12.1594L77.2539 12.1594 78.5118 10.587ZM78.5118 16.9812 80.7131 18.6583C80.5034 18.868 80.2938 18.9728 80.0842 18.9728L80.0842 23.1657C80.0842 24.5284 79.7697 25.367 77.2539 25.5766 77.2539 25.0525 77.1491 24.5284 76.9395 24.0043 76.625 23.585 76.2057 23.3753 75.6816 23.2705L75.6816 23.2705C75.2623 23.3753 74.9479 23.4802 74.5286 23.4802L74.1093 23.4802 74.1093 22.7464 72.2225 22.7464 72.2225 23.1657C72.2225 23.3753 71.2791 23.7946 70.4405 23.7946L70.126 23.7946 70.126 18.9728 72.3273 19.8114 74.0045 19.8114 74.9479 18.7632 76.9395 20.2307C76.8347 20.4403 76.625 20.5451 76.3106 20.5451L76.3106 22.8512C76.3106 22.8512 76.2057 22.9561 75.9961 23.0609 76.4154 23.0609 77.1491 23.1657 77.4636 23.1657 77.7781 23.1657 77.7781 23.0609 77.7781 22.8512L77.7781 18.5535 68.7634 18.5535 68.7634 24.738C68.7634 24.9477 67.7151 25.4718 66.7717 25.4718L66.4573 25.4718 66.4573 17.1908 68.973 18.1342 77.5684 18.1342 78.5118 16.9812ZM75.1575 17.6101 75.1575 16.7715 71.1743 16.7715 71.1743 17.086C70.6502 17.6101 69.9164 17.8198 69.1826 17.8198L68.8682 17.8198 68.8682 13.1028 71.2791 14.0462 75.0527 14.0462 76.1009 12.8931 78.1973 14.4655C77.9877 14.6751 77.7781 14.7799 77.5684 14.7799L77.5684 17.086C76.9395 17.4005 76.3106 17.5053 75.6816 17.5053L75.1575 17.6101ZM75.1575 16.2474 75.1575 14.3606 71.1743 14.3606 71.1743 16.2474 75.1575 16.2474ZM74.1093 20.3355 72.2225 20.3355 72.2225 22.2223 74.1093 22.2223 74.1093 20.3355Z" fill="#3F3F3F" transform="matrix(1 0 0 1.10696 4.35377 17)"/><path d="M95.493 22.3271C95.493 22.3271 96.646 23.2705 97.3798 24.0043 97.3798 24.2139 97.1702 24.2139 96.9605 24.2139L91.7194 24.2139 91.7194 24.9477C91.7194 25.0525 91.0905 25.5766 89.9374 25.5766L89.5181 25.5766 89.5181 16.5619C89.0989 17.086 88.6796 17.6101 88.1555 18.0294L87.9458 17.9246C88.5747 16.5619 89.0989 15.1992 89.4133 13.7317 89.3085 13.7317 89.2037 13.8365 89.0989 13.8365L85.7445 13.8365C85.2204 17.4005 84.277 21.5934 81.7613 24.6332L81.5517 24.5284C82.8095 21.3837 83.3336 17.4005 83.5433 13.8365L81.8661 13.8365 81.7613 13.4172 83.6481 13.4172C83.6481 12.2642 83.6481 11.1112 83.6481 10.0629L86.6879 10.2726C86.6879 10.4822 86.5831 10.6919 86.059 10.6919 85.9542 11.5304 85.9542 12.369 85.8494 13.3124L86.6879 13.3124 87.7362 11.9497C87.7362 11.9497 88.7844 12.7883 89.5181 13.5221 89.8326 12.369 89.9374 11.216 90.1471 10.0629L92.6628 10.6919C92.3483 10.4822 92.2435 10.1678 92.1387 9.95811L92.2435 9.95811C96.646 11.1112 94.34 14.4655 92.6628 12.7883 92.6628 12.2642 92.6628 11.7401 92.558 11.216 92.4532 11.216 92.3483 11.3208 92.2435 11.3208 92.0339 12.0546 91.7194 12.7883 91.3001 13.4172L91.7194 13.5221 94.2351 13.5221 95.2834 12.1594C95.2834 12.1594 96.4364 13.2076 97.0653 13.8365 97.0653 14.0462 96.8557 14.0462 96.646 14.0462L94.5496 14.0462 94.5496 16.8764 95.3882 15.6185C95.3882 15.6185 96.3316 16.4571 96.9605 17.086 96.9605 17.2957 96.7509 17.2957 96.5412 17.2957L94.5496 17.2957 94.5496 20.2307 95.3882 18.9728C95.3882 18.9728 96.3316 19.8114 96.9605 20.4403 96.9605 20.65 96.7509 20.7548 96.5412 20.7548L94.34 20.7548 94.34 23.585 95.493 22.3271ZM86.6879 19.1825C90.9857 21.803 88.994 25.5766 87.3169 23.7946 87.3169 23.2705 87.3169 22.7464 87.2121 22.3271 86.5831 22.8512 85.9542 23.3753 85.3253 23.8995 85.2204 24.2139 85.0108 24.5284 84.6963 24.6332L83.7529 22.1175C83.9626 22.1175 84.1722 22.0127 84.3819 21.803 85.2204 19.7066 85.7445 17.4005 85.9542 15.1992L88.6796 15.7233C88.5747 15.933 88.3651 16.1426 88.1555 16.1426 87.7362 17.1908 87.3169 18.2391 86.6879 19.2873L86.6879 19.1825ZM87.1072 21.6982C87.0024 20.8596 86.7928 20.1259 86.4783 19.2873 86.059 20.2307 85.5349 21.1741 84.906 22.0127 85.5349 21.9078 86.3735 21.9078 87.1072 21.6982L87.1072 21.6982ZM91.6146 16.8764 92.4532 16.8764 92.4532 14.0462 91.6146 14.0462 91.6146 16.8764ZM92.4532 17.2957 91.6146 17.2957 91.6146 20.2307 92.4532 20.2307 92.4532 17.2957ZM91.6146 23.6898 92.4532 23.6898 92.4532 20.65 91.6146 20.65 91.6146 23.6898Z" fill="#3F3F3F" transform="matrix(1 0 0 1.10696 4.35377 17)"/><path d="M111.216 11.216C111.216 11.216 112.684 12.2642 113.522 13.1028 113.522 13.3124 113.313 13.4172 112.998 13.4172L106.919 13.4172 106.919 15.5137 108.91 15.5137 109.958 14.3606 112.16 16.0378C111.95 16.2474 111.74 16.3523 111.531 16.3523L111.531 20.9644C111.531 22.4319 111.216 23.2705 108.805 23.4802 108.805 22.9561 108.701 22.3271 108.491 21.9078 108.281 21.4885 107.757 21.1741 107.338 21.1741L107.338 20.9644C107.338 20.9644 108.491 21.0693 108.91 21.0693 109.12 21.0693 109.225 20.9644 109.225 20.7548L109.225 16.0378 107.128 16.0378 107.128 25.0525C107.128 25.1573 106.395 25.6814 105.137 25.6814L104.717 25.6814 104.717 16.0378 102.516 16.0378 102.516 22.6416C102.516 22.8512 101.468 23.3753 100.524 23.3753L100.21 23.3753 100.21 14.5703 102.726 15.5137 104.717 15.5137 104.717 13.4172 98.3232 13.4172 98.2184 12.998 110.168 12.998 111.216 11.216ZM103.774 9.95811C109.12 9.64364 107.233 13.8365 104.927 12.4738 104.613 11.6353 104.193 10.7967 103.774 9.95811L103.774 9.95811Z" fill="#3F3F3F" transform="matrix(1 0 0 1.10696 4.35377 17)"/><path d="M128.512 14.3606C128.407 16.7715 127.569 18.9728 126.311 20.9644 127.359 22.0127 128.512 22.8512 129.875 23.3753L129.875 23.585C128.826 23.7946 127.988 24.5284 127.778 25.5766 126.625 24.738 125.787 23.6898 125.053 22.5368 123.376 24.1091 121.384 25.1573 119.183 25.6814L119.078 25.4718C121.279 24.5284 123.061 22.8512 124.214 20.7548 123.69 19.2873 123.271 17.8198 123.061 16.2474 122.537 16.9812 121.908 17.5053 121.279 18.1342L121.07 18.0294C121.174 17.7149 121.384 17.4005 121.489 17.086L119.812 17.086 119.812 21.3837C120.755 21.1741 121.699 20.9644 122.642 20.7548L122.642 20.9644C120.336 22.3271 117.925 23.585 115.514 24.6332 115.409 24.8429 115.304 25.0525 115.095 25.0525L113.942 22.5368C114.256 22.5368 114.571 22.4319 114.885 22.3271L114.885 14.4655 117.296 14.6751C117.296 14.8847 117.191 14.9896 116.877 14.9896L116.877 21.9078 117.715 21.6982 117.715 12.2642 114.466 12.2642 114.361 11.8449 119.602 11.8449 120.755 10.3774C120.755 10.3774 122.013 11.4256 122.747 12.0546 122.642 12.2642 122.537 12.369 122.327 12.369L120.021 12.369 120.021 16.3523 120.965 15.0944C120.965 15.0944 121.489 15.6185 122.013 16.1426 122.642 14.2558 123.061 12.2642 123.271 10.1678L126.52 10.9015C126.416 11.1112 126.311 11.216 125.891 11.3208 125.577 12.2642 125.263 13.1028 124.843 14.0462L126.94 14.0462 128.093 12.4738C128.093 12.4738 129.351 13.5221 130.189 14.151 130.189 14.3606 129.98 14.4655 129.665 14.4655L128.512 14.3606ZM124.424 14.3606C124.109 14.8847 123.795 15.4089 123.481 15.8281 123.795 16.9812 124.319 18.1342 124.948 19.1825 125.577 17.6101 125.891 15.933 125.891 14.2558L124.424 14.2558Z" fill="#3F3F3F" transform="matrix(1 0 0 1.10696 4.35377 17)"/><path d="M138.68 14.0462C138.68 14.2558 138.47 14.3606 138.051 14.3606 137.632 15.0944 137.317 15.8281 136.793 16.4571L137.736 16.7715C137.736 16.8764 137.527 16.9812 137.212 17.086L137.212 24.8429C136.688 25.2621 136.059 25.4718 135.43 25.367L135.011 25.367 135.011 18.5535C134.801 18.7632 134.487 19.0776 134.277 19.2873L134.068 19.1825C134.906 17.1908 135.535 15.0944 135.85 12.998L134.172 12.998 134.172 16.7715C134.172 19.4969 133.963 23.1657 130.608 25.4718L130.504 25.367C131.761 22.8512 131.866 19.6017 131.866 16.7715L131.866 11.6353 134.592 12.5787 138.26 12.5787 138.26 12.5787C138.051 11.6353 137.632 10.6919 137.003 10.0629L137.107 9.95811C140.776 9.95811 140.986 11.8449 140.042 12.5787L142.977 12.5787 144.131 11.0063C144.131 11.0063 145.388 12.0546 146.122 12.7883 146.122 12.998 145.912 12.998 145.703 12.998L136.374 12.998 138.68 14.0462ZM144.445 14.8847C144.445 14.8847 145.493 15.933 146.017 16.6667 146.017 16.8764 145.808 16.8764 145.598 16.8764L143.711 16.8764 143.711 22.9561C143.711 24.5284 143.397 25.367 140.881 25.5766 140.881 25.0525 140.776 24.4236 140.462 24.0043 140.042 23.585 139.518 23.2705 138.889 23.2705L138.889 23.0609C138.889 23.0609 140.776 23.1657 141.195 23.1657 141.615 23.1657 141.51 23.0609 141.51 22.8512L141.51 16.9812 137.946 16.9812 137.841 16.5619 141.51 16.5619 141.51 13.4172 144.34 13.6269C144.34 13.8365 144.131 14.0462 143.711 14.0462L143.711 16.1426 144.445 14.8847ZM138.47 17.6101C142.977 19.1825 140.671 22.6416 138.994 20.9644 138.994 19.8114 138.785 18.7632 138.365 17.7149L138.47 17.6101Z" fill="#3F3F3F" transform="matrix(1 0 0 1.10696 4.35377 17)"/><path d="M64.9898 35.6395 64.4656 35.6395 63.5222 32.5997C63.5222 32.4949 63.4174 32.2852 63.4174 32.0756 63.4174 31.9708 63.3126 31.8659 63.3126 31.6563 63.3126 31.9708 63.2078 32.2852 63.103 32.5997L62.1596 35.6395 61.6354 35.6395 60.4824 31.0274 61.0065 31.0274 61.7403 33.8576C61.8451 34.2769 61.9499 34.5913 61.9499 34.9058 62.0547 34.4865 62.0547 34.172 62.1596 33.7527L62.9981 30.9225 63.5222 30.9225 64.3608 33.7527C64.4656 34.0672 64.5705 34.4865 64.5705 34.9058 64.6753 34.5913 64.6753 34.172 64.7801 33.8576L65.5139 31.0274 66.038 31.0274 64.9898 35.6395Z" fill="#3F3F3F" transform="matrix(1 0 0 1.10696 4.35377 17)"/><path d="M69.8116 35.6395 69.1826 34.172 67.2958 34.172 66.7717 35.6395 66.2476 35.6395 68.1344 31.0274 68.5537 31.0274 70.3357 35.6395 69.8116 35.6395ZM69.0778 33.7527 68.5537 32.2852C68.4489 32.0756 68.4489 31.8659 68.3441 31.6563 68.2392 31.8659 68.2392 32.0756 68.1344 32.2852L67.6103 33.7527 69.0778 33.7527Z" fill="#3F3F3F" transform="matrix(1 0 0 1.10696 4.35377 17)"/><path d="M72.4321 35.6395 71.908 35.6395 71.908 31.4467 70.4405 31.4467 70.4405 31.0274 73.8996 31.0274 73.8996 31.5515 72.4321 31.5515Z" fill="#3F3F3F" transform="matrix(1 0 0 1.10696 4.35377 17)"/><path d="M77.1491 35.6395 74.5286 35.6395 74.5286 31.0274 77.1491 31.0274 77.1491 31.5515 75.1575 31.5515 75.1575 33.019 77.0443 33.019 77.0443 33.4383 75.1575 33.4383 75.1575 35.1154 77.1491 35.1154Z" fill="#3F3F3F" transform="matrix(1 0 0 1.10696 4.35377 17)"/><path d="M78.7215 33.7527 78.7215 35.6395 78.1973 35.6395 78.1973 31.0274 79.4552 31.0274C79.8745 31.0274 80.2938 31.1322 80.7131 31.3418 81.0275 31.5515 81.1324 31.9708 81.1324 32.2852 81.1324 32.9142 80.7131 33.3335 80.189 33.5431L81.4468 35.6395 80.8179 35.6395 79.6649 33.7527 78.7215 33.7527ZM78.7215 33.3335 79.4552 33.3335C79.7697 33.3335 80.0842 33.2286 80.2938 33.1238 80.5034 32.9142 80.6083 32.7045 80.6083 32.4949 80.6083 32.2852 80.5034 31.9708 80.2938 31.8659 80.0842 31.7611 79.7697 31.6563 79.4552 31.6563L78.7215 31.6563 78.7215 33.3335Z" fill="#3F3F3F" transform="matrix(1 0 0 1.10696 4.35377 17)"/><path d="M84.3819 33.7527 84.3819 35.6395 83.8577 35.6395 83.8577 31.0274 85.1156 31.0274C85.5349 31.0274 85.9542 31.1322 86.3735 31.3418 86.6879 31.5515 86.7928 31.9708 86.7928 32.2852 86.7928 32.9142 86.3735 33.4383 85.8494 33.5431L87.1072 35.6395 86.4783 35.6395 85.3253 33.7527 84.3819 33.7527 84.3819 33.7527ZM84.3819 33.3335 85.1156 33.3335C85.4301 33.3335 85.7445 33.2286 85.9542 33.1238 86.1638 32.9142 86.2687 32.7045 86.1638 32.4949 86.1638 32.2852 86.059 31.9708 85.9542 31.8659 85.6397 31.7611 85.4301 31.6563 85.1156 31.6563L84.3819 31.6563 84.3819 33.3335 84.3819 33.3335Z" fill="#3F3F3F" transform="matrix(1 0 0 1.10696 4.35377 17)"/><path d="M90.3567 35.6395 87.7362 35.6395 87.7362 31.0274 90.3567 31.0274 90.3567 31.5515 88.2603 31.5515 88.2603 33.019 90.2519 33.019 90.2519 33.4383 88.2603 33.4383 88.2603 35.1154 90.3567 35.1154Z" fill="#3F3F3F" transform="matrix(1 0 0 1.10696 4.35377 17)"/><path d="M93.9207 34.3817C93.9207 34.801 93.8159 35.1154 93.5014 35.3251 93.1869 35.5347 92.7676 35.6395 92.3483 35.6395 91.9291 35.6395 91.5098 35.6395 91.0905 35.4299L91.0905 34.9058C91.5098 35.1154 91.9291 35.1154 92.3483 35.1154 92.6628 35.1154 92.9773 35.1154 93.1869 34.9058 93.3966 34.801 93.5014 34.5913 93.5014 34.3817 93.5014 34.2769 93.5014 34.0672 93.3966 33.9624 93.2917 33.8576 93.1869 33.7527 93.0821 33.6479 92.8725 33.5431 92.6628 33.4383 92.3483 33.3335 92.0339 33.2286 91.7194 33.019 91.4049 32.8093 91.1953 32.5997 91.0905 32.2852 91.0905 31.9708 91.0905 31.6563 91.1953 31.3418 91.5098 31.1322 91.8242 30.9225 92.1387 30.8177 92.558 30.8177 92.9773 30.8177 93.3966 30.9225 93.8159 31.0274L93.6062 31.4467C93.2917 31.3418 92.8725 31.237 92.558 31.237 92.3483 31.237 92.1387 31.3418 91.9291 31.4467 91.7194 31.5515 91.7194 31.7611 91.7194 31.9708 91.7194 32.0756 91.7194 32.2852 91.8242 32.3901 91.9291 32.4949 92.0339 32.5997 92.1387 32.7045 92.3483 32.8093 92.558 32.9142 92.7676 33.019 93.1869 33.1238 93.5014 33.3335 93.711 33.5431 93.9207 33.8576 94.0255 34.172 93.9207 34.3817" fill="#3F3F3F" transform="matrix(1 0 0 1.10696 4.35377 17)"/><path d="M98.8473 33.3335C98.8473 33.9624 98.6377 34.5913 98.3232 35.1154 97.9039 35.5347 97.3798 35.7444 96.7509 35.7444 96.1219 35.7444 95.5978 35.5347 95.1785 35.1154 94.7593 34.5913 94.5496 33.9624 94.6544 33.3335 94.6544 32.7045 94.8641 32.0756 95.1785 31.5515 95.5978 31.1322 96.1219 30.9225 96.7509 30.9225 97.3798 30.9225 97.9039 31.1322 98.3232 31.5515 98.7425 32.0756 98.9521 32.7045 98.8473 33.3335M95.1785 33.3335C95.1785 33.8576 95.2834 34.3817 95.5978 34.801 95.9123 35.1154 96.3316 35.3251 96.7509 35.3251 97.1702 35.3251 97.5894 35.1154 97.9039 34.801 98.2184 34.3817 98.3232 33.8576 98.3232 33.3335 98.3232 32.8093 98.2184 32.3901 97.9039 31.9708 97.5894 31.6563 97.1702 31.4467 96.7509 31.4467 96.3316 31.4467 95.9123 31.5515 95.5978 31.9708 95.2834 32.2852 95.1785 32.8093 95.1785 33.3335" fill="#3F3F3F" transform="matrix(1 0 0 1.10696 4.35377 17)"/><path d="M103.355 31.0274 103.355 33.9624C103.355 34.3817 103.25 34.9058 102.831 35.2203 102.516 35.5347 101.992 35.6395 101.573 35.6395 101.049 35.6395 100.629 35.5347 100.315 35.2203 100 34.9058 99.7907 34.4865 99.8955 33.9624L99.8955 31.0274 100.42 31.0274 100.42 34.0672C100.42 34.3817 100.524 34.6961 100.734 34.9058 100.944 35.1154 101.363 35.2203 101.678 35.2203 101.992 35.2203 102.306 35.1154 102.621 34.9058 102.831 34.6961 102.935 34.3817 102.935 33.9624L102.935 30.9225 103.355 31.0274 103.355 31.0274Z" fill="#3F3F3F" transform="matrix(1 0 0 1.10696 4.35377 17)"/><path d="M105.137 33.7527 105.137 35.6395 104.613 35.6395 104.613 31.0274 105.87 31.0274C106.29 31.0274 106.709 31.1322 107.128 31.3418 107.443 31.5515 107.548 31.9708 107.548 32.2852 107.548 32.9142 107.128 33.4383 106.604 33.5431L107.862 35.6395 107.233 35.6395 106.08 33.7527 105.137 33.7527 105.137 33.7527ZM105.137 33.3335 105.87 33.3335C106.185 33.3335 106.499 33.2286 106.709 33.1238 106.919 32.9142 107.023 32.7045 107.023 32.4949 107.023 32.2852 106.919 31.9708 106.709 31.8659 106.395 31.7611 106.185 31.6563 105.87 31.6563L105.137 31.6563 105.137 33.3335 105.137 33.3335Z" fill="#3F3F3F" transform="matrix(1 0 0 1.10696 4.35377 17)"/><path d="M110.483 31.4467C110.063 31.4467 109.539 31.6563 109.33 31.9708 108.805 32.8093 108.805 33.8576 109.33 34.6961 109.644 35.0106 110.063 35.2203 110.483 35.2203 110.902 35.2203 111.216 35.1154 111.531 35.0106L111.531 35.5347C111.112 35.6395 110.797 35.7444 110.378 35.7444 109.749 35.7444 109.225 35.5347 108.805 35.1154 108.386 34.5913 108.176 33.9624 108.281 33.3335 108.281 32.9142 108.386 32.4949 108.491 32.0756 108.701 31.7611 108.91 31.4467 109.225 31.237 109.539 31.0274 109.958 30.9225 110.378 30.9225 110.797 30.9225 111.216 31.0274 111.636 31.237L111.426 31.6563C111.216 31.5515 110.902 31.4467 110.483 31.4467" fill="#3F3F3F" transform="matrix(1 0 0 1.10696 4.35377 17)"/><path d="M115.2 35.6395 112.579 35.6395 112.579 31.0274 115.2 31.0274 115.2 31.5515 113.208 31.5515 113.208 33.019 115.095 33.019 115.095 33.4383 113.208 33.4383 113.208 35.1154 115.2 35.1154Z" fill="#3F3F3F" transform="matrix(1 0 0 1.10696 4.35377 17)"/><path d="M118.764 34.3817C118.764 34.6961 118.659 35.1154 118.344 35.3251 118.03 35.5347 117.61 35.6395 117.191 35.6395 116.772 35.6395 116.353 35.6395 115.933 35.4299L115.933 34.9058C116.353 35.1154 116.772 35.1154 117.191 35.1154 117.506 35.1154 117.82 35.1154 118.03 34.9058 118.239 34.801 118.344 34.5913 118.344 34.3817 118.344 34.2769 118.344 34.0672 118.239 33.9624 118.135 33.8576 118.03 33.7527 117.925 33.6479 117.715 33.5431 117.506 33.4383 117.191 33.3335 116.877 33.2286 116.562 33.019 116.248 32.8093 116.038 32.5997 115.933 32.2852 115.933 31.9708 115.933 31.6563 116.038 31.3418 116.353 31.1322 116.667 30.9225 117.086 30.8177 117.401 30.8177 117.82 30.8177 118.239 30.9225 118.659 31.0274L118.449 31.4467C118.135 31.3418 117.715 31.237 117.296 31.237 117.086 31.237 116.877 31.3418 116.667 31.4467 116.562 31.5515 116.457 31.7611 116.457 31.9708 116.457 32.2852 116.562 32.4949 116.877 32.5997 117.086 32.7045 117.296 32.8093 117.506 32.9142 117.925 33.019 118.239 33.2286 118.554 33.4383 118.764 33.8576 118.868 34.172 118.764 34.3817" fill="#3F3F3F" transform="matrix(1 0 0 1.10696 4.35377 17)"/><path d="M121.384 31.0274 122.642 31.0274C123.061 31.0274 123.585 31.1322 124.005 31.3418 124.319 31.5515 124.424 31.8659 124.424 32.1804 124.424 32.3901 124.319 32.7045 124.214 32.8093 124.005 33.019 123.795 33.1238 123.585 33.1238 124.319 33.2286 124.634 33.6479 124.634 34.172 124.634 34.5913 124.529 34.9058 124.214 35.1154 123.9 35.3251 123.481 35.5347 123.061 35.4299L121.489 35.4299 121.384 31.0274ZM121.908 33.019 122.747 33.019C123.061 33.019 123.376 33.019 123.585 32.8093 123.795 32.7045 123.9 32.3901 123.795 32.1804 123.795 31.9708 123.69 31.7611 123.481 31.6563 123.166 31.5515 122.852 31.4467 122.642 31.4467L121.803 31.4467 121.908 33.019ZM121.908 33.4383 121.908 35.1154 122.852 35.1154C123.166 35.1154 123.481 35.1154 123.69 34.9058 123.9 34.6961 124.005 34.4865 124.005 34.2769 124.005 34.0672 123.9 33.7527 123.69 33.6479 123.481 33.5431 123.166 33.4383 122.852 33.4383L121.908 33.4383Z" fill="#3F3F3F" transform="matrix(1 0 0 1.10696 4.35377 17)"/><path d="M129.036 31.0274 129.036 33.9624C129.036 34.3817 128.931 34.9058 128.512 35.2203 128.198 35.5347 127.673 35.6395 127.254 35.6395 126.416 35.7444 125.577 35.1154 125.472 34.2769 125.472 34.172 125.472 34.0672 125.472 33.9624L125.472 31.0274 125.996 31.0274 125.996 34.0672C125.996 34.3817 126.101 34.6961 126.311 34.9058 126.52 35.1154 126.94 35.2203 127.254 35.2203 127.569 35.2203 127.883 35.1154 128.198 34.9058 128.407 34.6961 128.512 34.3817 128.512 33.9624L128.512 30.9225 129.036 31.0274 129.036 31.0274Z" fill="#3F3F3F" transform="matrix(1 0 0 1.10696 4.35377 17)"/><path d="M130.818 33.7527 130.818 35.6395 130.294 35.6395 130.294 31.0274 131.552 31.0274C131.971 31.0274 132.39 31.1322 132.81 31.3418 133.124 31.5515 133.229 31.9708 133.229 32.2852 133.229 32.9142 132.915 33.3335 132.286 33.5431L133.543 35.6395 132.915 35.6395 131.761 33.7527 130.818 33.7527 130.818 33.7527ZM130.818 33.3335 131.552 33.3335C131.866 33.3335 132.181 33.2286 132.39 33.1238 132.6 32.9142 132.705 32.7045 132.705 32.4949 132.705 32.2852 132.6 31.9708 132.39 31.8659 132.181 31.7611 131.866 31.6563 131.552 31.6563L130.818 31.6563 130.818 33.3335 130.818 33.3335Z" fill="#3F3F3F" transform="matrix(1 0 0 1.10696 4.35377 17)"/><path d="M136.793 35.6395 134.277 35.6395 134.277 31.0274 136.793 31.0274 136.793 31.5515 134.801 31.5515 134.801 33.019 136.688 33.019 136.688 33.4383 134.801 33.4383 134.801 35.1154 136.793 35.1154Z" fill="#3F3F3F" transform="matrix(1 0 0 1.10696 4.35377 17)"/><path d="M140.671 35.6395 140.147 34.172 138.26 34.172 137.736 35.6395 137.212 35.6395 138.994 31.0274 139.413 31.0274 141.195 35.6395 140.671 35.6395ZM139.938 33.7527 139.413 32.2852C139.309 32.0756 139.309 31.8659 139.204 31.6563 139.204 31.8659 139.099 32.0756 138.994 32.2852L138.47 33.7527 139.938 33.7527Z" fill="#3F3F3F" transform="matrix(1 0 0 1.10696 4.35377 17)"/><path d="M145.388 31.0274 145.388 33.9624C145.388 34.3817 145.284 34.9058 144.864 35.2203 144.55 35.5347 144.026 35.6395 143.606 35.6395 143.082 35.6395 142.663 35.5347 142.349 35.2203 142.034 34.9058 141.824 34.4865 141.929 33.9624L141.929 31.0274 142.453 31.0274 142.453 34.0672C142.453 34.3817 142.558 34.6961 142.768 34.9058 142.977 35.1154 143.397 35.2203 143.711 35.2203 144.34 35.3251 144.864 34.9058 144.969 34.2769 144.969 34.172 144.969 34.0672 144.969 34.0672L144.969 31.0274 145.388 31.0274 145.388 31.0274Z" fill="#3F3F3F" transform="matrix(1 0 0 1.10696 4.35377 17)"/><path d="M64.256 43.3964 63.6271 43.3964 61.9499 41.1951 61.5306 41.6144 61.5306 43.3964 61.0065 43.3964 61.0065 38.7842 61.5306 38.7842 61.5306 40.9855 63.6271 38.7842 64.256 38.7842 62.3692 40.7758Z" fill="#3F3F3F" transform="matrix(1 0 0 1.10696 4.35377 17)"/><path d="M67.8199 43.3964 67.2958 41.9289 65.409 41.9289 64.8849 43.3964 64.3608 43.3964 66.2476 38.7842 66.6669 38.7842 68.4489 43.3964 67.8199 43.3964ZM67.0862 41.4048 66.5621 39.9372C66.4573 39.7276 66.4573 39.518 66.3524 39.3083 66.2476 39.518 66.2476 39.7276 66.1428 39.9372L65.6187 41.4048 67.0862 41.4048Z" fill="#3F3F3F" transform="matrix(1 0 0 1.10696 4.35377 17)"/><path d="M72.9562 41.0903C72.9562 41.7192 72.7466 42.3482 72.4321 42.8723 72.0128 43.2916 71.4887 43.5012 70.8598 43.5012 70.2309 43.5012 69.7067 43.2916 69.2875 42.8723 68.8682 42.3482 68.6585 41.7192 68.7634 41.0903 68.7634 40.4614 68.973 39.8324 69.2875 39.3083 69.7067 38.889 70.2309 38.6794 70.8598 38.6794 71.4887 38.6794 72.0128 38.889 72.4321 39.3083 72.8514 39.8324 73.0611 40.4614 72.9562 41.0903M69.2875 41.0903C69.2875 41.6144 69.3923 42.1385 69.7067 42.5578 70.3357 43.1867 71.3839 43.1867 72.0128 42.5578 72.3273 42.1385 72.4321 41.6144 72.4321 41.0903 72.4321 40.5662 72.3273 40.1469 72.0128 39.7276 71.6984 39.4131 71.2791 39.2035 70.8598 39.2035 70.4405 39.2035 70.0212 39.3083 69.7067 39.7276 69.3923 40.0421 69.2875 40.5662 69.2875 41.0903" fill="#3F3F3F" transform="matrix(1 0 0 1.10696 4.35377 17)"/><path d="M77.4636 43.3964 76.9395 43.3964 76.9395 41.1951 74.5286 41.1951 74.5286 43.3964 74.0045 43.3964 74.0045 38.7842 74.5286 38.7842 74.5286 40.671 76.9395 40.671 76.9395 38.7842 77.4636 38.7842Z" fill="#3F3F3F" transform="matrix(1 0 0 1.10696 4.35377 17)"/><path d="M81.342 42.1385C81.342 42.5578 81.2372 42.8723 80.9227 43.0819 80.6083 43.2916 80.189 43.3964 79.7697 43.3964 79.3504 43.3964 78.9311 43.3964 78.5118 43.1867L78.5118 42.6626C78.7215 42.7674 78.9311 42.7674 79.1407 42.8723 79.3504 42.8723 79.56 42.9771 79.7697 42.9771 80.0842 42.9771 80.3986 42.9771 80.6083 42.7674 80.8179 42.6626 80.8179 42.453 80.8179 42.2433 80.8179 42.1385 80.8179 41.9289 80.7131 41.8241 80.6083 41.7192 80.5034 41.6144 80.3986 41.5096 80.189 41.4048 79.9793 41.2999 79.6649 41.1951 79.3504 41.0903 79.0359 40.8806 78.7215 40.671 78.5118 40.4614 78.407 40.1469 78.407 39.8324 78.407 39.518 78.5118 39.2035 78.8263 38.9939 79.1407 38.7842 79.4552 38.6794 79.8745 38.6794 80.2938 38.6794 80.7131 38.7842 81.1324 38.889L80.9227 39.3083C80.6083 39.2035 80.189 39.0987 79.7697 39.0987 79.56 39.0987 79.3504 39.2035 79.1407 39.3083 78.9311 39.4131 78.9311 39.6228 78.9311 39.8324 78.9311 39.9372 78.9311 40.1469 79.0359 40.2517 79.1407 40.3565 79.2456 40.4614 79.3504 40.5662 79.56 40.671 79.7697 40.7758 79.9793 40.8806 80.2938 40.9855 80.7131 41.1951 80.9227 41.4048 81.2372 41.6144 81.342 41.9289 81.342 42.1385" fill="#3F3F3F" transform="matrix(1 0 0 1.10696 4.35377 17)"/><path d="M82.2854 43.3964 82.2854 38.7842 82.8095 38.7842 82.8095 43.3964Z" fill="#3F3F3F" transform="matrix(1 0 0 1.10696 4.35377 17)"/><path d="M87.5265 38.7842 87.5265 41.7192C87.5265 42.1385 87.4217 42.6626 87.0024 42.9771 86.6879 43.2916 86.1638 43.3964 85.7445 43.3964 85.3253 43.3964 84.8011 43.2916 84.4867 42.9771 84.1722 42.6626 83.9626 42.2433 84.0674 41.7192L84.0674 38.7842 84.5915 38.7842 84.5915 41.8241C84.5915 42.1385 84.6963 42.453 84.906 42.6626 85.1156 42.8723 85.5349 42.9771 85.8494 42.9771 86.1638 42.9771 86.4783 42.8723 86.6879 42.6626 86.8976 42.453 87.0024 42.1385 87.0024 41.8241L87.0024 38.7842 87.5265 38.7842 87.5265 38.7842Z" fill="#3F3F3F" transform="matrix(1 0 0 1.10696 4.35377 17)"/><path d="M92.3483 43.3964 91.7194 43.3964 89.2037 39.518C89.2037 39.9372 89.2037 40.3565 89.2037 40.7758L89.2037 43.3964 88.6796 43.3964 88.6796 38.7842 89.3085 38.7842 91.8242 42.6626 91.8242 38.7842 92.3483 38.7842 92.3483 43.3964Z" fill="#3F3F3F" transform="matrix(1 0 0 1.10696 4.35377 17)"/><path d="M95.5978 40.9855 97.1702 40.9855 97.1702 43.1867C96.9605 43.2916 96.646 43.2916 96.4364 43.3964 96.1219 43.3964 95.8075 43.5012 95.5978 43.5012 94.9689 43.5012 94.34 43.2916 93.9207 42.8723 93.5014 42.3482 93.2917 41.7192 93.2917 41.0903 93.2917 40.671 93.3966 40.2517 93.6062 39.8324 93.8159 39.518 94.1303 39.2035 94.4448 38.9939 94.8641 38.7842 95.2834 38.6794 95.7027 38.6794 96.1219 38.6794 96.646 38.7842 97.0653 38.9939L96.8557 39.518C96.4364 39.3083 96.1219 39.3083 95.7027 39.3083 95.1785 39.3083 94.7593 39.4131 94.4448 39.8324 93.8159 40.671 93.8159 41.8241 94.4448 42.6626 94.7593 42.9771 95.2834 43.1867 95.8075 43.1867 96.1219 43.1867 96.4364 43.1867 96.7509 43.0819L96.7509 41.7192 95.7027 41.7192 95.5978 40.9855Z" fill="#3F3F3F" transform="matrix(1 0 0 1.10696 4.35377 17)"/><path d="M101.992 39.2035C101.573 39.2035 101.049 39.4131 100.734 39.7276 100.42 40.1469 100.21 40.5662 100.315 41.0903 100.315 41.6144 100.42 42.0337 100.734 42.453 101.049 42.7674 101.468 42.9771 101.992 42.9771 102.411 42.9771 102.726 42.8723 103.04 42.7674L103.04 43.2916C102.621 43.3964 102.306 43.5012 101.887 43.5012 101.258 43.5012 100.734 43.2916 100.315 42.8723 99.8955 42.3482 99.6859 41.7192 99.7907 41.0903 99.7907 40.671 99.8955 40.2517 100.105 39.8324 100.315 39.518 100.524 39.2035 100.839 38.9939 101.153 38.7842 101.573 38.6794 101.992 38.6794 102.411 38.6794 102.831 38.7842 103.25 38.889L103.04 39.3083C102.726 39.3083 102.306 39.2035 101.992 39.2035" fill="#3F3F3F" transform="matrix(1 0 0 1.10696 4.35377 17)"/><path d="M104.088 43.3964 104.088 38.7842 104.613 38.7842 104.613 43.3964Z" fill="#3F3F3F" transform="matrix(1 0 0 1.10696 4.35377 17)"/><path d="M107.233 43.3964 106.709 43.3964 106.709 39.2035 105.241 39.2035 105.241 38.7842 108.701 38.7842 108.701 39.2035 107.233 39.2035Z" fill="#3F3F3F" transform="matrix(1 0 0 1.10696 4.35377 17)"/><path d="M110.587 41.0903 111.845 38.7842 112.369 38.7842 110.797 41.6144 110.797 43.3964 110.273 43.3964 110.273 41.6144 108.805 38.7842 109.33 38.7842Z" fill="#3F3F3F" transform="matrix(1 0 0 1.10696 4.35377 17)"/><path d="M116.667 40.9855 118.239 40.9855 118.239 43.1867C118.03 43.2916 117.715 43.2916 117.506 43.3964 117.191 43.3964 116.877 43.5012 116.667 43.5012 116.038 43.5012 115.514 43.2916 115.095 42.8723 114.675 42.3482 114.466 41.7192 114.571 41.0903 114.571 40.671 114.675 40.2517 114.885 39.8324 115.095 39.518 115.409 39.2035 115.724 38.9939 116.143 38.7842 116.562 38.6794 116.982 38.6794 117.401 38.6794 117.925 38.7842 118.344 38.889L118.135 39.4131C117.715 39.2035 117.401 39.2035 116.982 39.2035 116.457 39.2035 116.038 39.3083 115.724 39.7276 115.409 40.1469 115.2 40.5662 115.304 41.0903 115.304 41.6144 115.409 42.1385 115.724 42.453 116.038 42.7674 116.562 42.9771 117.086 42.9771 117.401 42.9771 117.715 42.9771 118.03 42.8723L118.03 41.5096 116.982 41.5096 116.667 40.9855Z" fill="#3F3F3F" transform="matrix(1 0 0 1.10696 4.35377 17)"/><path d="M123.376 41.0903C123.376 41.7192 123.166 42.3482 122.852 42.8723 122.013 43.7108 120.65 43.7108 119.707 42.8723 118.973 41.8241 118.973 40.4614 119.707 39.4131 120.126 38.9939 120.65 38.7842 121.279 38.7842 121.908 38.7842 122.432 38.9939 122.852 39.4131 123.166 39.8324 123.376 40.4614 123.376 41.0903M119.707 41.0903C119.707 41.6144 119.812 42.1385 120.126 42.5578 120.755 43.1867 121.803 43.1867 122.432 42.5578 122.432 42.5578 122.432 42.5578 122.432 42.5578 122.956 41.7192 122.956 40.5662 122.432 39.7276 121.803 39.0987 120.755 39.0987 120.126 39.7276 119.812 40.0421 119.602 40.5662 119.707 41.0903L119.707 41.0903Z" fill="#3F3F3F" transform="matrix(1 0 0 1.10696 4.35377 17)"/><path d="M126.94 38.7842 127.464 38.7842 125.787 43.3964 125.263 43.3964 123.69 38.7842 124.214 38.7842 125.263 41.7192C125.367 42.0337 125.472 42.3482 125.577 42.6626 125.682 42.3482 125.787 41.9289 125.891 41.6144L126.94 38.7842Z" fill="#3F3F3F" transform="matrix(1 0 0 1.10696 4.35377 17)"/><path d="M130.818 43.3964 128.198 43.3964 128.198 38.7842 130.713 38.7842 130.713 39.2035 128.722 39.2035 128.722 40.671 130.713 40.671 130.713 41.1951 128.722 41.1951 128.722 42.8723 130.818 42.8723Z" fill="#3F3F3F" transform="matrix(1 0 0 1.10696 4.35377 17)"/><path d="M132.286 41.5096 132.286 43.3964 131.761 43.3964 131.761 38.7842 133.019 38.7842C133.439 38.7842 133.858 38.889 134.277 39.0987 134.592 39.3083 134.697 39.7276 134.697 40.0421 134.697 40.671 134.277 41.1951 133.753 41.2999L135.011 43.3964 134.382 43.3964 133.229 41.5096C133.334 41.5096 132.286 41.5096 132.286 41.5096ZM132.286 40.9855 133.019 40.9855C133.334 40.9855 133.648 40.8806 133.858 40.7758 134.068 40.5662 134.172 40.3565 134.172 40.1469 134.172 39.9372 134.068 39.6228 133.858 39.518 133.648 39.4131 133.334 39.3083 133.019 39.3083L132.286 39.3083 132.286 40.9855Z" fill="#3F3F3F" transform="matrix(1 0 0 1.10696 4.35377 17)"/><path d="M139.309 43.3964 138.68 43.3964 136.164 39.518C136.164 39.9372 136.164 40.3565 136.164 40.7758L136.164 43.3964 135.64 43.3964 135.64 38.7842 136.269 38.7842 138.785 42.6626C138.785 42.453 138.785 42.3482 138.785 42.1385 138.785 41.9289 138.785 41.7192 138.785 41.5096L138.785 38.7842 139.309 38.7842 139.309 43.3964Z" fill="#3F3F3F" transform="matrix(1 0 0 1.10696 4.35377 17)"/><path d="M142.663 43.3964 141.091 39.3083 141.091 40.4614 141.091 43.3964 140.671 43.3964 140.671 38.7842 141.51 38.7842 142.977 42.5578 144.445 38.7842 145.284 38.7842 145.284 43.3964 144.655 43.3964 144.655 40.4614C144.655 40.1469 144.655 39.7276 144.655 39.4131L143.082 43.5012 142.663 43.5012Z" fill="#3F3F3F" transform="matrix(1 0 0 1.10696 4.35377 17)"/><path d="M148.952 43.3964 146.437 43.3964 146.437 38.7842 148.952 38.7842 148.952 39.2035 146.961 39.2035 146.961 40.671 148.848 40.671 148.848 41.1951 146.961 41.1951 146.961 42.8723 148.952 42.8723Z" fill="#3F3F3F" transform="matrix(1 0 0 1.10696 4.35377 17)"/><path d="M153.564 43.3964 152.936 43.3964 150.42 39.518C150.42 39.9372 150.42 40.3565 150.42 40.7758L150.42 43.3964 149.896 43.3964 149.896 38.7842 150.42 38.7842 152.936 42.6626 152.936 42.1385C152.936 41.9289 152.936 41.7192 152.936 41.5096L152.936 38.7842 153.46 38.7842 153.564 43.3964Z" fill="#3F3F3F" transform="matrix(1 0 0 1.10696 4.35377 17)"/><path d="M156.29 43.3964 155.766 43.3964 155.766 39.2035 154.298 39.2035 154.298 38.7842 157.757 38.7842 157.757 39.2035 156.29 39.2035Z" fill="#3F3F3F" transform="matrix(1 0 0 1.10696 4.35377 17)"/><path d="M192.558 20.65C191.405 20.65 190.462 20.3355 189.728 19.8114 188.575 18.868 187.212 16.7715 187.946 15.1992 188.051 14.9896 188.156 14.7799 188.261 14.5703 188.365 14.3606 188.47 14.151 188.68 13.8365 188.994 13.3124 189.204 12.8931 189.519 12.4738 189.833 11.9497 190.147 11.5304 190.462 11.1112 190.881 10.587 191.405 10.0629 191.825 9.64364 192.349 9.22435 192.873 8.90989 193.292 8.70024 193.607 8.59542 193.921 8.4906 194.236 8.38577 194.655 8.38577 194.969 8.38577 195.179 8.38577L195.179 8.38577C197.066 8.38577 198.324 8.90989 199.057 10.0629 199.686 11.0063 200.001 12.369 199.791 14.0462 199.686 14.8847 199.477 15.7233 199.162 16.4571 198.848 17.1908 198.428 17.9246 197.904 18.4487 197.38 19.0776 196.751 19.4969 196.017 19.9162 195.389 20.2307 194.55 20.4403 193.711 20.5451 193.397 20.65 192.978 20.65 192.558 20.65ZM195.074 8.80506C194.76 8.80506 194.655 8.90989 194.445 8.90989 194.131 9.01471 193.921 9.01471 193.607 9.22435 193.082 9.434 192.558 9.64364 192.139 10.0629 191.72 10.4822 191.196 10.7967 190.776 11.3208 190.462 11.7401 189.938 12.1594 189.728 12.6835 189.519 13.1028 189.309 13.5221 188.994 14.0462 188.89 14.2558 188.785 14.5703 188.68 14.7799 188.575 14.9896 188.575 15.0944 188.47 15.4089 187.841 16.7715 188.994 18.7632 190.147 19.6017 190.776 20.1259 191.615 20.3355 192.768 20.3355 193.082 20.3355 193.502 20.3355 193.921 20.2307 194.76 20.1259 195.598 20.021 196.227 19.7066 197.171 19.1825 197.485 18.868 197.904 18.3439 198.428 17.8198 198.743 17.1908 199.057 16.4571 199.372 15.7233 199.581 14.9896 199.581 14.151 199.477 12.369 199.372 11.4256 198.743 10.587 198.009 9.53882 197.171 9.01471 195.493 9.01471L195.074 9.01471Z" fill="#5D5D5D" transform="matrix(1 0 0 1.10696 4.35377 17)"/><g clip-path="url(#clip1)"><path d="M29.0357 17.4005 17.4005 7.02309 27.6731-4.40253 39.2035 6.07969Z" fill="url(#fill2)" transform="matrix(1 0 0 1.10696 4.35377 17)"/></g><g clip-path="url(#clip3)"><path d="M3.7736 11.7401 30.1888 9.85328 31.7611 32.1804 5.34593 34.0672Z" fill="url(#fill4)" transform="matrix(1 0 0 1.10696 4.35377 17)"/></g><g clip-path="url(#clip5)"><path d="M7.33755 7.02309 43.7108 7.02309 43.7108 22.8512 7.33755 22.8512Z" fill="url(#fill6)" transform="matrix(1 0 0 1.10696 4.35377 17)"/></g><g clip-path="url(#clip7)"><path d="M16.6667 16.7715 40.2517 16.7715 40.2517 31.0274 16.6667 31.0274Z" fill="url(#fill8)" transform="matrix(1 0 0 1.10696 4.35377 17)"/></g><g clip-path="url(#clip9)"><path d="M34.2769 36.3733 17.5053 24.6332 28.6165 8.80506 45.388 20.5451Z" fill="url(#fill10)" transform="matrix(1 0 0 1.10696 4.35377 17)"/></g><g clip-path="url(#clip11)"><path d="M5.45075 26.6248 33.1238 29.0357 30.6081 57.5474 2.93502 55.1365Z" fill="url(#fill12)" transform="matrix(1 0 0 1.10696 4.35377 17)"/></g><g clip-path="url(#clip13)"><path d="M35.7444 62.6837-0.9434 35.0106 24.5284 1.25787 61.1113 28.9309Z" fill="url(#fill14)" transform="matrix(1 0 0 1.10696 4.35377 17)"/></g><g clip-path="url(#clip15)"><path d="M19.1825 38.3649 42.3482 38.3649 42.3482 53.5641 19.1825 53.5641Z" fill="url(#fill16)" transform="matrix(1 0 0 1.10696 4.35377 17)"/></g><g clip-path="url(#clip17)"><path d="M31.7611 46.1218 24.5284 37.0022 34.2769 29.3502 41.5096 38.4697Z" fill="url(#fill18)" transform="matrix(1 0 0 1.10696 4.35377 17)"/></g></g></svg>